<svg width="137" height="50" viewBox="0 0 137 50" fill="none" xmlns="http://www.w3.org/2000/svg">
<g filter="url(#filter0_d_288_119)">
<rect width="125" height="38" rx="19" transform="matrix(-1 0 0 1 131 6)" fill="white"/>
</g>
<path d="M29.5332 21L24.5466 25.571C24.1465 25.9378 24.1329 26.5642 24.5167 26.948L29.5332 31.9645" stroke="black" stroke-width="0.953435" stroke-linecap="round"/>
<path d="M33.3477 21L28.3611 25.571C27.961 25.9378 27.9473 26.5642 28.3312 26.948L33.3477 31.9645" stroke="black" stroke-width="0.953435" stroke-linecap="round"/>
<path d="M25.7207 21L20.7341 25.571C20.334 25.9378 20.3204 26.5642 20.7042 26.948L25.7207 31.9645" stroke="black" stroke-width="0.953435" stroke-linecap="round"/>
<path d="M103 25.5C103 23.5109 103.79 21.6032 105.197 20.1967C106.603 18.7902 108.511 18 110.5 18C112.489 18 114.397 18.7902 115.803 20.1967C117.21 21.6032 118 23.5109 118 25.5V30.2719C118 31.0669 118 31.4625 117.882 31.7803C117.788 32.0322 117.641 32.2609 117.451 32.4509C117.261 32.641 117.032 32.7879 116.78 32.8819C116.462 33 116.066 33 115.272 33H110.5C108.511 33 106.603 32.2098 105.197 30.8033C103.79 29.3968 103 27.4891 103 25.5Z" stroke="black"/>
<path d="M107.688 24.5625H113.312M110.5 28.3125H113.312" stroke="black" stroke-linecap="round" stroke-linejoin="round"/>
<path d="M46.3621 29.2196C46.4679 29.2196 46.5605 29.2593 46.6399 29.3387C46.7192 29.4092 46.7589 29.4974 46.7589 29.6032C46.7589 29.7178 46.7192 29.8148 46.6399 29.8942C46.5605 29.9647 46.4679 30 46.3621 30H41.6401C41.5255 30 41.4285 29.9603 41.3491 29.881C41.2786 29.8016 41.2433 29.709 41.2433 29.6032V21.138C41.2433 21.0322 41.283 20.9396 41.3624 20.8602C41.4417 20.7809 41.5431 20.7412 41.6666 20.7412C41.7724 20.7412 41.865 20.7809 41.9443 20.8602C42.0325 20.9396 42.0766 21.0322 42.0766 21.138V29.4445L41.8253 29.2196H46.3621ZM54.3806 26.6139C54.3806 27.2841 54.2351 27.8881 53.9441 28.426C53.6531 28.9551 53.2563 29.3739 52.7537 29.6826C52.2511 29.9824 51.6779 30.1323 51.0342 30.1323C50.4081 30.1323 49.8394 29.9824 49.3279 29.6826C48.8253 29.3739 48.4241 28.9551 48.1243 28.426C47.8333 27.8881 47.6878 27.2841 47.6878 26.6139C47.6878 25.9349 47.8333 25.3309 48.1243 24.8018C48.4241 24.2728 48.8253 23.8539 49.3279 23.5453C49.8394 23.2367 50.4081 23.0824 51.0342 23.0824C51.6779 23.0824 52.2511 23.2367 52.7537 23.5453C53.2563 23.8539 53.6531 24.2728 53.9441 24.8018C54.2351 25.3309 54.3806 25.9349 54.3806 26.6139ZM53.587 26.6139C53.587 26.076 53.4768 25.5999 53.2563 25.1854C53.0359 24.7622 52.7316 24.4315 52.3437 24.1934C51.9645 23.9465 51.528 23.8231 51.0342 23.8231C50.558 23.8231 50.126 23.9465 49.738 24.1934C49.35 24.4315 49.0413 24.7622 48.8121 25.1854C48.5916 25.5999 48.4814 26.076 48.4814 26.6139C48.4814 27.1518 48.5916 27.628 48.8121 28.0424C49.0413 28.4569 49.35 28.7875 49.738 29.0344C50.126 29.2725 50.558 29.3916 51.0342 29.3916C51.528 29.3916 51.9645 29.2725 52.3437 29.0344C52.7316 28.7875 53.0359 28.4569 53.2563 28.0424C53.4768 27.628 53.587 27.1518 53.587 26.6139ZM59.0433 23.0824C59.4665 23.0824 59.8545 23.1309 60.2072 23.2278C60.5599 23.316 60.8421 23.4395 61.0537 23.5982C61.2742 23.7569 61.3844 23.9289 61.3844 24.114C61.3844 24.2022 61.3536 24.2904 61.2918 24.3786C61.2301 24.4579 61.1463 24.4976 61.0405 24.4976C60.9347 24.4976 60.8465 24.4712 60.776 24.4183C60.7143 24.3654 60.6481 24.3036 60.5776 24.2331C60.5159 24.1625 60.4233 24.0964 60.2998 24.0347C60.1852 23.9818 60.022 23.9333 59.8104 23.8892C59.5988 23.8451 59.3563 23.8231 59.0829 23.8231C58.5891 23.8231 58.1438 23.9465 57.747 24.1934C57.3502 24.4403 57.0372 24.7754 56.8079 25.1987C56.5787 25.6131 56.464 26.0804 56.464 26.6007C56.464 27.1298 56.5742 27.6059 56.7947 28.0292C57.0151 28.4525 57.3194 28.7875 57.7073 29.0344C58.0953 29.2725 58.5495 29.3916 59.0697 29.3916C59.4224 29.3916 59.6958 29.3607 59.8898 29.299C60.0838 29.2373 60.2513 29.1667 60.3924 29.0873C60.5599 28.9903 60.679 28.8978 60.7495 28.8096C60.8289 28.7126 60.9303 28.6641 61.0537 28.6641C61.1684 28.6641 61.2521 28.6994 61.3051 28.7699C61.3668 28.8316 61.3976 28.9154 61.3976 29.0212C61.3976 29.1623 61.2918 29.321 61.0802 29.4974C60.8774 29.6649 60.5952 29.8148 60.2337 29.9471C59.8721 30.0705 59.4577 30.1323 58.9904 30.1323C58.329 30.1323 57.747 29.978 57.2444 29.6693C56.7506 29.3607 56.3626 28.9419 56.0804 28.4128C55.8071 27.8749 55.6704 27.2709 55.6704 26.6007C55.6704 25.957 55.8115 25.3706 56.0937 24.8415C56.3758 24.3125 56.7682 23.8892 57.2709 23.5717C57.7823 23.2455 58.3731 23.0824 59.0433 23.0824ZM66.2066 21.7597L62.9925 29.7487C62.9572 29.8369 62.9087 29.903 62.847 29.9471C62.7853 29.9912 62.7147 30.0132 62.6354 30.0132C62.5119 30.0132 62.4193 29.9824 62.3576 29.9206C62.2959 29.8501 62.2606 29.7663 62.2518 29.6693C62.243 29.6252 62.2474 29.5723 62.265 29.5106L65.7569 20.9661C65.801 20.8691 65.8539 20.8029 65.9156 20.7677C65.9862 20.7236 66.0656 20.7015 66.1537 20.7015C66.2419 20.7015 66.3169 20.728 66.3786 20.7809C66.4491 20.825 66.502 20.8867 66.5373 20.9661L70.016 29.4709C70.0336 29.5238 70.0424 29.5767 70.0424 29.6296C70.0424 29.7531 70.0027 29.8501 69.9234 29.9206C69.844 29.9824 69.7514 30.0132 69.6456 30.0132C69.5574 30.0132 69.4781 29.9912 69.4075 29.9471C69.3458 29.8942 69.2973 29.8281 69.262 29.7487L65.9686 21.7068L66.2066 21.7597ZM63.7597 27.3282L64.0903 26.5478H68.1907L68.3494 27.3282H63.7597ZM72.2442 29.6032C72.2442 29.709 72.2045 29.8016 72.1251 29.881C72.0458 29.9603 71.9532 30 71.8474 30C71.7327 30 71.6357 29.9603 71.5564 29.881C71.4858 29.8016 71.4506 29.709 71.4506 29.6032V23.5188C71.4506 23.413 71.4858 23.3204 71.5564 23.2411C71.6357 23.1617 71.7327 23.122 71.8474 23.122C71.962 23.122 72.0546 23.1617 72.1251 23.2411C72.2045 23.3204 72.2442 23.413 72.2442 23.5188V29.6032ZM71.8474 22.2358C71.6622 22.2358 71.5211 22.1962 71.4241 22.1168C71.3359 22.0286 71.2918 21.9052 71.2918 21.7464V21.6142C71.2918 21.4555 71.3403 21.3364 71.4373 21.257C71.5432 21.1689 71.6842 21.1248 71.8606 21.1248C72.0281 21.1248 72.156 21.1689 72.2442 21.257C72.3412 21.3364 72.3897 21.4555 72.3897 21.6142V21.7464C72.3897 21.9052 72.3412 22.0286 72.2442 22.1168C72.156 22.1962 72.0237 22.2358 71.8474 22.2358ZM81.1367 23.0824C81.7363 23.0824 82.2653 23.2323 82.7239 23.5321C83.1912 23.8319 83.5616 24.2463 83.8349 24.7754C84.1083 25.2956 84.245 25.8997 84.245 26.5875C84.245 27.2576 84.1083 27.8617 83.8349 28.3996C83.5616 28.9374 83.1912 29.3607 82.7239 29.6693C82.2565 29.978 81.7319 30.1323 81.1499 30.1323C80.8413 30.1323 80.5459 30.0838 80.2637 29.9868C79.9903 29.8898 79.739 29.7619 79.5098 29.6032C79.2805 29.4357 79.0777 29.2417 78.9013 29.0212C78.725 28.8008 78.5839 28.5627 78.4781 28.307L78.7161 28.135V29.6296C78.7161 29.7443 78.6765 29.8413 78.5971 29.9206C78.5266 29.9912 78.434 30.0265 78.3193 30.0265C78.2047 30.0265 78.1077 29.9912 78.0283 29.9206C77.9578 29.8413 77.9225 29.7443 77.9225 29.6296V20.6222C77.9225 20.5075 77.9578 20.4149 78.0283 20.3444C78.0989 20.265 78.1959 20.2254 78.3193 20.2254C78.434 20.2254 78.5266 20.265 78.5971 20.3444C78.6765 20.4149 78.7161 20.5075 78.7161 20.6222V25.0532L78.531 24.9473C78.6191 24.674 78.747 24.4271 78.9145 24.2066C79.0909 23.9774 79.2937 23.779 79.523 23.6114C79.7522 23.4439 80.0036 23.316 80.2769 23.2278C80.5503 23.1309 80.8368 23.0824 81.1367 23.0824ZM81.0705 23.8231C80.5944 23.8231 80.1755 23.9421 79.814 24.1802C79.4524 24.4183 79.1659 24.7445 78.9542 25.159C78.7514 25.5734 78.65 26.0496 78.65 26.5875C78.65 27.1165 78.7514 27.5971 78.9542 28.0292C79.1659 28.4525 79.4524 28.7875 79.814 29.0344C80.1755 29.2725 80.5944 29.3916 81.0705 29.3916C81.5379 29.3916 81.9479 29.2681 82.3006 29.0212C82.6622 28.7743 82.9487 28.4392 83.1604 28.016C83.372 27.5839 83.4778 27.1077 83.4778 26.5875C83.4778 26.0496 83.372 25.5734 83.1604 25.159C82.9487 24.7445 82.6622 24.4183 82.3006 24.1802C81.9479 23.9421 81.5379 23.8231 81.0705 23.8231ZM92.2399 26.6139C92.2399 27.2841 92.0944 27.8881 91.8034 28.426C91.5124 28.9551 91.1156 29.3739 90.613 29.6826C90.1104 29.9824 89.5372 30.1323 88.8935 30.1323C88.2674 30.1323 87.6987 29.9824 87.1872 29.6826C86.6846 29.3739 86.2834 28.9551 85.9836 28.426C85.6926 27.8881 85.5471 27.2841 85.5471 26.6139C85.5471 25.9349 85.6926 25.3309 85.9836 24.8018C86.2834 24.2728 86.6846 23.8539 87.1872 23.5453C87.6987 23.2367 88.2674 23.0824 88.8935 23.0824C89.5372 23.0824 90.1104 23.2367 90.613 23.5453C91.1156 23.8539 91.5124 24.2728 91.8034 24.8018C92.0944 25.3309 92.2399 25.9349 92.2399 26.6139ZM91.4463 26.6139C91.4463 26.076 91.336 25.5999 91.1156 25.1854C90.8952 24.7622 90.5909 24.4315 90.2029 24.1934C89.8238 23.9465 89.3873 23.8231 88.8935 23.8231C88.4173 23.8231 87.9852 23.9465 87.5973 24.1934C87.2093 24.4315 86.9006 24.7622 86.6714 25.1854C86.4509 25.5999 86.3407 26.076 86.3407 26.6139C86.3407 27.1518 86.4509 27.628 86.6714 28.0424C86.9006 28.4569 87.2093 28.7875 87.5973 29.0344C87.9852 29.2725 88.4173 29.3916 88.8935 29.3916C89.3873 29.3916 89.8238 29.2725 90.2029 29.0344C90.5909 28.7875 90.8952 28.4569 91.1156 28.0424C91.336 27.628 91.4463 27.1518 91.4463 26.6139ZM93.49 23.2675H96.5719C96.6777 23.2675 96.7659 23.3072 96.8364 23.3866C96.907 23.4571 96.9422 23.5453 96.9422 23.6511C96.9422 23.7481 96.907 23.8319 96.8364 23.9024C96.7659 23.973 96.6777 24.0082 96.5719 24.0082H93.49C93.3842 24.0082 93.2916 23.973 93.2123 23.9024C93.1417 23.8231 93.1064 23.7349 93.1064 23.6379C93.1064 23.5321 93.1417 23.4439 93.2123 23.3733C93.2916 23.3028 93.3842 23.2675 93.49 23.2675ZM94.8524 21.4025C94.967 21.4025 95.0596 21.4422 95.1302 21.5216C95.2095 21.6009 95.2492 21.6935 95.2492 21.7993V28.4392C95.2492 28.6861 95.2801 28.8713 95.3418 28.9948C95.4123 29.1182 95.5005 29.202 95.6063 29.2461C95.7121 29.2813 95.8179 29.299 95.9238 29.299C95.9943 29.299 96.056 29.2902 96.1089 29.2725C96.1707 29.2461 96.2368 29.2328 96.3073 29.2328C96.3867 29.2328 96.4528 29.2637 96.5057 29.3254C96.5675 29.3872 96.5983 29.4665 96.5983 29.5635C96.5983 29.687 96.5278 29.7928 96.3867 29.881C96.2456 29.9603 96.0781 30 95.8841 30C95.8047 30 95.6857 29.9956 95.527 29.9868C95.3682 29.9691 95.2051 29.9206 95.0376 29.8413C94.87 29.7531 94.7289 29.6032 94.6143 29.3916C94.5085 29.1799 94.4556 28.8757 94.4556 28.4789V21.7993C94.4556 21.6935 94.4909 21.6009 94.5614 21.5216C94.6408 21.4422 94.7378 21.4025 94.8524 21.4025Z" fill="black"/>
<defs>
<filter id="filter0_d_288_119" x="0.0999999" y="0.0999999" width="136.8" height="49.8" filterUnits="userSpaceOnUse" color-interpolation-filters="sRGB">
<feFlood flood-opacity="0" result="BackgroundImageFix"/>
<feColorMatrix in="SourceAlpha" type="matrix" values="0 0 0 0 0 0 0 0 0 0 0 0 0 0 0 0 0 0 127 0" result="hardAlpha"/>
<feOffset/>
<feGaussianBlur stdDeviation="2.95"/>
<feComposite in2="hardAlpha" operator="out"/>
<feColorMatrix type="matrix" values="0 0 0 0 0 0 0 0 0 0 0 0 0 0 0 0 0 0 0.25 0"/>
<feBlend mode="normal" in2="BackgroundImageFix" result="effect1_dropShadow_288_119"/>
<feBlend mode="normal" in="SourceGraphic" in2="effect1_dropShadow_288_119" result="shape"/>
</filter>
</defs>
</svg>
