<svg width="22" height="17" viewBox="0 0 22 17" fill="none" xmlns="http://www.w3.org/2000/svg">
<path d="M13.7038 1.00098H8.39694C7.75545 1.00085 7.12022 1.12666 6.52752 1.37122C5.93482 1.61578 5.39627 1.9743 4.94263 2.4263C4.48898 2.87831 4.12912 3.41495 3.8836 4.00557C3.63809 4.59619 3.51172 5.22922 3.51172 5.86852V11.1572C3.51172 12.4485 4.02641 13.6868 4.94257 14.5998C5.85872 15.5128 7.1013 16.0258 8.39694 16.0258H13.7038C14.9994 16.0258 16.242 15.5128 17.1582 14.5998C18.0743 13.6868 18.589 12.4485 18.589 11.1572V5.86852C18.589 4.57731 18.0743 3.33898 17.1582 2.42596C16.242 1.51293 14.9994 1 13.7038 1V1.00098Z" stroke="black" stroke-width="1.1453"/>
<path d="M18.5091 12.0194H20.0967C20.3632 12.0194 20.6189 11.9138 20.8074 11.726C20.9959 11.5382 21.1018 11.2834 21.1018 11.0177V6.00946C21.1018 5.74381 20.9959 5.48904 20.8074 5.30119C20.6189 5.11334 20.3632 5.00781 20.0967 5.00781H18.5082M3.59362 12.0194H2.00509C1.8731 12.0194 1.7424 11.9935 1.62046 11.9431C1.49851 11.8928 1.38771 11.819 1.29438 11.726C1.20105 11.633 1.12702 11.5226 1.07651 11.401C1.026 11.2795 1 11.1493 1 11.0177V6.00946C1 5.74381 1.10589 5.48904 1.29438 5.30119C1.48287 5.11334 1.73852 5.00781 2.00509 5.00781H3.59362" stroke="black" stroke-width="1.1453"/>
<path d="M1.99609 5.00856V1.00195M20.0975 5.00856L20.0877 1.00195M8.02663 5.35059V7.98714M14.0572 5.35059V7.98714M9.03171 12.0201H13.0521" stroke="black" stroke-width="1.1453" stroke-linecap="round" stroke-linejoin="round"/>
</svg>
