<svg width="13" height="13" viewBox="0 0 13 13" fill="none" xmlns="http://www.w3.org/2000/svg">
<path d="M11.8882 0.786948C11.7612 0.655456 11.6019 0.563017 11.4278 0.519791C11.2538 0.476565 11.0716 0.484226 10.9014 0.541931L1.08089 3.95817C0.898753 4.01836 0.737808 4.13349 0.618378 4.28901C0.498948 4.44454 0.426391 4.63348 0.409871 4.83199C0.393351 5.03049 0.433608 5.22965 0.525559 5.40431C0.61751 5.57897 0.757029 5.72129 0.926495 5.8133L5.00105 7.91345L7.01484 12.1768C7.09578 12.3436 7.21964 12.4837 7.37256 12.5814C7.52548 12.6791 7.70144 12.7304 7.88076 12.7298H7.94789C8.13993 12.715 8.32328 12.6404 8.47412 12.5156C8.62495 12.3907 8.73629 12.2214 8.79368 12.0297L12.1164 1.81602C12.1758 1.63956 12.1858 1.44915 12.1454 1.26697C12.105 1.08478 12.0158 0.918317 11.8882 0.786948ZM1.49707 4.92424L10.0691 1.94203L5.30983 6.90538L1.49707 4.92424ZM7.92775 11.6237L6.02137 7.64743L10.7806 2.68408L7.92775 11.6237Z" fill="black"/>
</svg>
