<svg width="17" height="17" viewBox="0 0 17 17" fill="none" xmlns="http://www.w3.org/2000/svg">
<path d="M1 8.5C1 6.51088 1.79018 4.60322 3.1967 3.1967C4.60322 1.79018 6.51088 1 8.5 1C10.4891 1 12.3968 1.79018 13.8033 3.1967C15.2098 4.60322 16 6.51088 16 8.5V13.2719C16 14.0669 16 14.4625 15.8819 14.7803C15.7879 15.0322 15.641 15.2609 15.4509 15.4509C15.2609 15.641 15.0322 15.7879 14.7803 15.8819C14.4625 16 14.0659 16 13.2719 16H8.5C6.51088 16 4.60322 15.2098 3.1967 13.8033C1.79018 12.3968 1 10.4891 1 8.5Z" stroke="black"/>
<path d="M5.6875 7.5625H11.3125M8.5 11.3125H11.3125" stroke="black" stroke-linecap="round" stroke-linejoin="round"/>
</svg>
