<svg width="18" height="18" viewBox="0 0 18 18" fill="none" xmlns="http://www.w3.org/2000/svg">
<path d="M9 3.9375C9 3.78832 8.94074 3.64524 8.83525 3.53975C8.72976 3.43426 8.58668 3.375 8.4375 3.375C8.28832 3.375 8.14524 3.43426 8.03975 3.53975C7.93426 3.64524 7.875 3.78832 7.875 3.9375V10.125C7.87503 10.2241 7.90127 10.3215 7.95106 10.4073C8.00084 10.493 8.07241 10.5641 8.1585 10.6132L12.096 12.8632C12.2252 12.9331 12.3766 12.9496 12.5179 12.9093C12.6591 12.869 12.779 12.775 12.8518 12.6475C12.9247 12.5199 12.9448 12.369 12.9078 12.2268C12.8709 12.0847 12.7798 11.9626 12.654 11.8868L9 9.79875V3.9375Z" fill="black"/>
<path d="M9 18.001C11.3869 18.001 13.6761 17.0528 15.364 15.3649C17.0518 13.6771 18 11.3879 18 9.00098C18 6.61403 17.0518 4.32484 15.364 2.63702C13.6761 0.949188 11.3869 0.000976563 9 0.000976562C6.61305 0.000976563 4.32387 0.949188 2.63604 2.63702C0.948212 4.32484 0 6.61403 0 9.00098C0 11.3879 0.948212 13.6771 2.63604 15.3649C4.32387 17.0528 6.61305 18.001 9 18.001ZM16.875 9.00098C16.875 11.0896 16.0453 13.0926 14.5685 14.5694C13.0916 16.0463 11.0886 16.876 9 16.876C6.91142 16.876 4.90838 16.0463 3.43153 14.5694C1.95468 13.0926 1.125 11.0896 1.125 9.00098C1.125 6.9124 1.95468 4.90936 3.43153 3.43251C4.90838 1.95566 6.91142 1.12598 9 1.12598C11.0886 1.12598 13.0916 1.95566 14.5685 3.43251C16.0453 4.90936 16.875 6.9124 16.875 9.00098Z" fill="black"/>
</svg>
