<svg width="27" height="37" viewBox="0 0 27 37" fill="none" xmlns="http://www.w3.org/2000/svg">
<circle cx="14.0373" cy="12.0373" r="11.5373" stroke="black"/>
<path d="M14 12H20.4824" stroke="black" stroke-linecap="round"/>
<path d="M14 11.998L20.0743 5.4515" stroke="black" stroke-linecap="round"/>
<path d="M1.67842 29.6073C1.78114 29.6073 1.87102 29.6458 1.94805 29.7229C2.03023 29.7948 2.07132 29.8872 2.07132 30.0002V34.6071C2.06618 34.7201 2.02253 34.8151 1.94035 34.8921C1.86331 34.964 1.77087 35 1.66301 35C1.54489 35 1.4473 34.964 1.37027 34.8921C1.29836 34.8151 1.26241 34.7201 1.26241 34.6071V30.0002C1.26241 29.8872 1.30093 29.7948 1.37797 29.7229C1.45501 29.6458 1.55516 29.6073 1.67842 29.6073ZM5.15285 29.6073C5.27612 29.6073 5.3737 29.6458 5.4456 29.7229C5.5175 29.7948 5.55345 29.8872 5.55345 30.0002V34.6071C5.55345 34.7201 5.51494 34.8151 5.4379 34.8921C5.36599 34.964 5.26841 35 5.14515 35C5.0373 35 4.94485 34.964 4.86781 34.8921C4.79077 34.8151 4.75226 34.7201 4.75226 34.6071V30.0002C4.75226 29.8872 4.79077 29.7948 4.86781 29.7229C4.94999 29.6458 5.045 29.6073 5.15285 29.6073ZM1.6476 31.9031H5.16056L5.15285 32.6426H1.6399L1.6476 31.9031ZM7.43897 34.6071C7.43897 34.7201 7.40302 34.8151 7.33112 34.8921C7.25921 34.964 7.16677 35 7.05378 35C6.94593 35 6.85348 34.964 6.77644 34.8921C6.70454 34.8151 6.66859 34.7201 6.66859 34.6071V31.3099C6.66859 31.1969 6.70454 31.1044 6.77644 31.0325C6.85348 30.9555 6.94593 30.917 7.05378 30.917C7.16677 30.917 7.25921 30.9555 7.33112 31.0325C7.40302 31.1044 7.43897 31.1969 7.43897 31.3099V34.6071ZM7.04608 30.4085C6.89713 30.4085 6.78928 30.3828 6.72251 30.3315C6.65575 30.275 6.62236 30.1825 6.62236 30.0541V29.9309C6.62236 29.8025 6.65831 29.7126 6.73022 29.6612C6.80212 29.6099 6.90997 29.5842 7.05378 29.5842C7.20786 29.5842 7.31828 29.6124 7.38504 29.6689C7.45181 29.7203 7.48519 29.8076 7.48519 29.9309V30.0541C7.48519 30.1877 7.44924 30.2801 7.37734 30.3315C7.31057 30.3828 7.20015 30.4085 7.04608 30.4085ZM8.23644 34.3683C8.19022 34.2964 8.16967 34.2142 8.17481 34.1218C8.17994 34.0242 8.23387 33.942 8.33659 33.8752C8.40849 33.829 8.48296 33.811 8.56 33.8213C8.64218 33.8264 8.71921 33.865 8.79112 33.9369C8.93492 34.0961 9.09413 34.2219 9.26875 34.3144C9.44851 34.4068 9.66422 34.453 9.91588 34.453C10.0186 34.4479 10.1239 34.4325 10.2317 34.4068C10.3396 34.376 10.432 34.3246 10.5091 34.2527C10.5861 34.1757 10.6246 34.0653 10.6246 33.9215C10.6246 33.7931 10.5835 33.6903 10.5014 33.6133C10.4192 33.5363 10.3113 33.4746 10.1778 33.4284C10.0443 33.3771 9.90047 33.3308 9.74639 33.2897C9.58204 33.2435 9.41513 33.1922 9.24564 33.1357C9.08129 33.0792 8.93235 33.0073 8.79882 32.92C8.66529 32.8275 8.55487 32.7094 8.46755 32.5656C8.38538 32.4218 8.34429 32.2446 8.34429 32.034C8.34429 31.7926 8.41106 31.5846 8.54459 31.41C8.68326 31.2354 8.86045 31.0993 9.07616 31.0017C9.297 30.9041 9.53582 30.8553 9.79262 30.8553C9.94156 30.8553 10.0982 30.8759 10.2626 30.917C10.4269 30.9529 10.5861 31.012 10.7402 31.0941C10.8943 31.1763 11.0278 31.2842 11.1408 31.4177C11.1921 31.4845 11.2204 31.5641 11.2255 31.6565C11.2358 31.749 11.1947 31.8312 11.1023 31.9031C11.0406 31.9544 10.9662 31.9775 10.8789 31.9724C10.7915 31.9673 10.7196 31.939 10.6632 31.8876C10.5656 31.7644 10.4397 31.6694 10.2857 31.6026C10.1316 31.5307 9.95697 31.4947 9.7618 31.4947C9.66422 31.4947 9.5615 31.5102 9.45365 31.541C9.35093 31.5667 9.26362 31.6154 9.19172 31.6873C9.11981 31.7592 9.08386 31.8645 9.08386 32.0032C9.08386 32.1316 9.12495 32.2343 9.20712 32.3114C9.29443 32.3884 9.40742 32.4526 9.54609 32.504C9.68476 32.5553 9.83627 32.6015 10.0006 32.6426C10.1598 32.6837 10.3165 32.7325 10.4706 32.789C10.6298 32.8455 10.771 32.92 10.8943 33.0124C11.0227 33.0997 11.1254 33.2153 11.2024 33.3591C11.2846 33.4977 11.3257 33.6749 11.3257 33.8906C11.3257 34.1423 11.2512 34.358 11.1023 34.5378C10.9585 34.7124 10.7736 34.8459 10.5476 34.9384C10.3267 35.0308 10.0931 35.077 9.84654 35.077C9.5538 35.077 9.26105 35.0257 8.9683 34.923C8.68069 34.8151 8.43674 34.6302 8.23644 34.3683ZM12.1002 30.994H13.9106C14.0133 30.994 14.0981 31.03 14.1648 31.1019C14.2368 31.1686 14.2727 31.2534 14.2727 31.3561C14.2727 31.4537 14.2368 31.5358 14.1648 31.6026C14.0981 31.6694 14.0133 31.7028 13.9106 31.7028H12.1002C11.9975 31.7028 11.9102 31.6694 11.8383 31.6026C11.7715 31.5307 11.7381 31.446 11.7381 31.3484C11.7381 31.2457 11.7715 31.1609 11.8383 31.0941C11.9102 31.0274 11.9975 30.994 12.1002 30.994ZM12.9091 29.9925C13.0221 29.9925 13.1146 30.031 13.1865 30.1081C13.2584 30.18 13.2943 30.2724 13.2943 30.3854V33.96C13.2943 34.0524 13.3097 34.1269 13.3405 34.1834C13.3714 34.2399 13.4124 34.2784 13.4638 34.2989C13.5203 34.3195 13.5768 34.3298 13.6333 34.3298C13.6898 34.3298 13.7386 34.3195 13.7797 34.2989C13.8259 34.2784 13.8798 34.2681 13.9414 34.2681C14.0031 34.2681 14.0596 34.2964 14.1109 34.3529C14.1623 34.4094 14.188 34.4864 14.188 34.584C14.188 34.7073 14.1212 34.8074 13.9877 34.8844C13.8541 34.9615 13.7103 35 13.5562 35C13.4689 35 13.3662 34.9923 13.2481 34.9769C13.13 34.9615 13.0144 34.923 12.9014 34.8613C12.7936 34.7997 12.7037 34.7021 12.6318 34.5686C12.5599 34.4299 12.5239 34.2373 12.5239 33.9908V30.3854C12.5239 30.2724 12.5599 30.18 12.6318 30.1081C12.7088 30.031 12.8013 29.9925 12.9091 29.9925ZM18.971 32.9739C18.971 33.3848 18.8811 33.7494 18.7013 34.0678C18.5216 34.3811 18.2776 34.6276 17.9695 34.8074C17.6613 34.9872 17.3146 35.077 16.9294 35.077C16.5443 35.077 16.1976 34.9872 15.8894 34.8074C15.5813 34.6276 15.3348 34.3811 15.1499 34.0678C14.9701 33.7494 14.8802 33.3848 14.8802 32.9739C14.8802 32.5579 14.9701 32.1932 15.1499 31.8799C15.3348 31.5615 15.5813 31.3124 15.8894 31.1327C16.1976 30.9478 16.5443 30.8553 16.9294 30.8553C17.3146 30.8553 17.6613 30.9478 17.9695 31.1327C18.2776 31.3124 18.5216 31.5615 18.7013 31.8799C18.8811 32.1932 18.971 32.5579 18.971 32.9739ZM18.2006 32.9739C18.2006 32.6914 18.1441 32.4475 18.0311 32.242C17.9181 32.0315 17.764 31.8671 17.5689 31.749C17.3788 31.6257 17.1657 31.5641 16.9294 31.5641C16.6932 31.5641 16.4775 31.6257 16.2823 31.749C16.0872 31.8671 15.9331 32.0315 15.8201 32.242C15.7071 32.4475 15.6506 32.6914 15.6506 32.9739C15.6506 33.2461 15.7071 33.4875 15.8201 33.698C15.9331 33.9086 16.0872 34.073 16.2823 34.1911C16.4775 34.3092 16.6932 34.3683 16.9294 34.3683C17.1657 34.3683 17.3788 34.3092 17.5689 34.1911C17.764 34.073 17.9181 33.9086 18.0311 33.698C18.1441 33.4875 18.2006 33.2461 18.2006 32.9739ZM20.2281 35C20.1151 35 20.0227 34.964 19.9508 34.8921C19.8789 34.8151 19.8429 34.7201 19.8429 34.6071V31.3407C19.8429 31.2277 19.8789 31.1352 19.9508 31.0633C20.0227 30.9863 20.1151 30.9478 20.2281 30.9478C20.336 30.9478 20.4259 30.9863 20.4978 31.0633C20.5748 31.1352 20.6133 31.2277 20.6133 31.3407V32.2035L20.5363 31.8722C20.5774 31.7284 20.639 31.5949 20.7212 31.4716C20.8085 31.3484 20.9112 31.2405 21.0293 31.1481C21.1475 31.0556 21.2784 30.9837 21.4222 30.9324C21.5712 30.881 21.7253 30.8553 21.8845 30.8553C22.018 30.8553 22.1336 30.8913 22.2311 30.9632C22.3287 31.0351 22.3775 31.125 22.3775 31.2328C22.3775 31.3715 22.3416 31.4742 22.2697 31.541C22.1978 31.6026 22.1181 31.6334 22.0308 31.6334C21.9538 31.6334 21.8793 31.618 21.8074 31.5872C21.7355 31.5512 21.6508 31.5333 21.5532 31.5333C21.4453 31.5333 21.3349 31.5615 21.2219 31.618C21.1089 31.6745 21.0062 31.7592 20.9138 31.8722C20.8213 31.9801 20.7469 32.1085 20.6904 32.2574C20.639 32.4064 20.6133 32.5733 20.6133 32.7582V34.6071C20.6133 34.7201 20.5748 34.8151 20.4978 34.8921C20.4259 34.964 20.336 35 20.2281 35ZM26.0751 30.917C26.1881 30.917 26.2806 30.9555 26.3525 31.0325C26.4244 31.1044 26.4603 31.1969 26.4603 31.3099V34.6225C26.4603 35.0745 26.373 35.4417 26.1984 35.7242C26.0289 36.0066 25.7978 36.2121 25.505 36.3405C25.2174 36.474 24.8913 36.5408 24.5266 36.5408C24.3418 36.5408 24.1569 36.5228 23.972 36.4868C23.7871 36.456 23.6356 36.4098 23.5174 36.3482C23.3942 36.2917 23.3069 36.2223 23.2555 36.1402C23.2041 36.058 23.1964 35.9681 23.2324 35.8705C23.2683 35.7473 23.33 35.6625 23.4173 35.6163C23.5046 35.5752 23.5945 35.5727 23.6869 35.6086C23.7742 35.6446 23.8898 35.6908 24.0336 35.7473C24.1774 35.8038 24.3418 35.832 24.5266 35.832C24.7783 35.832 24.9914 35.7909 25.1661 35.7088C25.3407 35.6266 25.4716 35.4982 25.559 35.3236C25.6514 35.1489 25.6976 34.923 25.6976 34.6456V34.1141L25.8209 34.2989C25.7387 34.4684 25.6309 34.6097 25.4973 34.7227C25.3638 34.8357 25.2046 34.923 25.0197 34.9846C24.8399 35.0462 24.6396 35.077 24.4188 35.077C24.1363 35.077 23.8924 35.0154 23.6869 34.8921C23.4866 34.7637 23.3325 34.5891 23.2247 34.3683C23.1168 34.1423 23.0629 33.8855 23.0629 33.5979V31.3099C23.0629 31.1969 23.0989 31.1044 23.1708 31.0325C23.2427 30.9555 23.3351 30.917 23.4481 30.917C23.556 30.917 23.6458 30.9555 23.7177 31.0325C23.7948 31.1044 23.8333 31.1969 23.8333 31.3099V33.3899C23.8333 33.7289 23.9078 33.978 24.0567 34.1372C24.2056 34.2912 24.4265 34.3683 24.7192 34.3683C24.9144 34.3683 25.0839 34.3272 25.2277 34.245C25.3715 34.1628 25.4845 34.0499 25.5667 33.9061C25.6488 33.7571 25.6899 33.5851 25.6899 33.3899V31.3099C25.6899 31.1969 25.7259 31.1044 25.7978 31.0325C25.8748 30.9555 25.9673 30.917 26.0751 30.917Z" fill="black"/>
</svg>
