<svg width="32" height="38" viewBox="0 0 32 38" fill="none" xmlns="http://www.w3.org/2000/svg">
<path d="M6.18487 30.6073C6.28759 30.6073 6.37747 30.6458 6.45451 30.7229C6.53668 30.7948 6.57777 30.8872 6.57777 31.0002V35.6071C6.57263 35.7201 6.52898 35.8151 6.4468 35.8921C6.36976 35.964 6.27732 36 6.16946 36C6.05134 36 5.95376 35.964 5.87672 35.8921C5.80481 35.8151 5.76886 35.7201 5.76886 35.6071V31.0002C5.76886 30.8872 5.80738 30.7948 5.88442 30.7229C5.96146 30.6458 6.06161 30.6073 6.18487 30.6073ZM9.65931 30.6073C9.78257 30.6073 9.88015 30.6458 9.95205 30.7229C10.024 30.7948 10.0599 30.8872 10.0599 31.0002V35.6071C10.0599 35.7201 10.0214 35.8151 9.94435 35.8921C9.87245 35.964 9.77486 36 9.6516 36C9.54375 36 9.4513 35.964 9.37426 35.8921C9.29722 35.8151 9.25871 35.7201 9.25871 35.6071V31.0002C9.25871 30.8872 9.29722 30.7948 9.37426 30.7229C9.45644 30.6458 9.55145 30.6073 9.65931 30.6073ZM6.15406 32.9031H9.66701L9.65931 33.6426H6.14635L6.15406 32.9031ZM15.104 33.9739C15.104 34.3848 15.0141 34.7494 14.8344 35.0678C14.6546 35.3811 14.4107 35.6276 14.1025 35.8074C13.7943 35.9872 13.4477 36.077 13.0625 36.077C12.6773 36.077 12.3306 35.9872 12.0225 35.8074C11.7143 35.6276 11.4678 35.3811 11.2829 35.0678C11.1031 34.7494 11.0133 34.3848 11.0133 33.9739C11.0133 33.5579 11.1031 33.1932 11.2829 32.8799C11.4678 32.5615 11.7143 32.3124 12.0225 32.1327C12.3306 31.9478 12.6773 31.8553 13.0625 31.8553C13.4477 31.8553 13.7943 31.9478 14.1025 32.1327C14.4107 32.3124 14.6546 32.5615 14.8344 32.8799C15.0141 33.1932 15.104 33.5579 15.104 33.9739ZM14.3336 33.9739C14.3336 33.6914 14.2771 33.4475 14.1641 33.242C14.0511 33.0315 13.8971 32.8671 13.7019 32.749C13.5119 32.6257 13.2987 32.5641 13.0625 32.5641C12.8262 32.5641 12.6105 32.6257 12.4154 32.749C12.2202 32.8671 12.0661 33.0315 11.9531 33.242C11.8401 33.4475 11.7836 33.6914 11.7836 33.9739C11.7836 34.2461 11.8401 34.4875 11.9531 34.698C12.0661 34.9086 12.2202 35.073 12.4154 35.1911C12.6105 35.3092 12.8262 35.3683 13.0625 35.3683C13.2987 35.3683 13.5119 35.3092 13.7019 35.1911C13.8971 35.073 14.0511 34.9086 14.1641 34.698C14.2771 34.4875 14.3336 34.2461 14.3336 33.9739ZM18.0098 31.8784C18.3898 31.8784 18.6826 31.9735 18.888 32.1635C19.0935 32.3484 19.2296 32.6 19.2963 32.9185L19.1731 32.8799L19.227 32.7567C19.2938 32.6231 19.3939 32.4896 19.5275 32.3561C19.6661 32.2174 19.8305 32.1044 20.0205 32.0171C20.2105 31.9247 20.4134 31.8784 20.6291 31.8784C20.9835 31.8784 21.2582 31.9555 21.4534 32.1096C21.6486 32.2585 21.7847 32.4614 21.8617 32.7182C21.9388 32.9698 21.9773 33.2523 21.9773 33.5656V35.6071C21.9773 35.7201 21.9413 35.8151 21.8694 35.8921C21.7975 35.964 21.7051 36 21.5921 36C21.4842 36 21.3918 35.964 21.3147 35.8921C21.2428 35.8151 21.2069 35.7201 21.2069 35.6071V33.5733C21.2069 33.3935 21.1812 33.2292 21.1299 33.0802C21.0836 32.9313 20.9989 32.8132 20.8756 32.7259C20.7575 32.6334 20.5931 32.5872 20.3826 32.5872C20.1823 32.5872 20.0025 32.6334 19.8433 32.7259C19.6892 32.8132 19.5685 32.9313 19.4812 33.0802C19.3939 33.2292 19.3503 33.3935 19.3503 33.5733V35.6071C19.3503 35.7201 19.3143 35.8151 19.2424 35.8921C19.1705 35.964 19.0781 36 18.9651 36C18.8521 36 18.7596 35.964 18.6877 35.8921C18.6158 35.8151 18.5799 35.7201 18.5799 35.6071V33.5656C18.5799 33.3858 18.5542 33.2215 18.5028 33.0725C18.4566 32.9236 18.3744 32.8055 18.2563 32.7182C18.1382 32.6309 17.9738 32.5872 17.7633 32.5872C17.563 32.5872 17.3858 32.6309 17.2317 32.7182C17.0776 32.8055 16.9569 32.9236 16.8696 33.0725C16.7874 33.2215 16.7464 33.3858 16.7464 33.5656V35.6071C16.7464 35.7201 16.7078 35.8151 16.6308 35.8921C16.5589 35.964 16.469 36 16.3612 36C16.2482 36 16.1557 35.964 16.0838 35.8921C16.0119 35.8151 15.976 35.7201 15.976 35.6071V32.3407C15.976 32.2277 16.0119 32.1352 16.0838 32.0633C16.1557 31.9863 16.2482 31.9478 16.3612 31.9478C16.469 31.9478 16.5589 31.9863 16.6308 32.0633C16.7078 32.1352 16.7464 32.2277 16.7464 32.3407V32.7952L16.6 32.8799C16.6359 32.767 16.695 32.6514 16.7772 32.5333C16.8594 32.4151 16.9621 32.3073 17.0853 32.2097C17.2137 32.1121 17.355 32.0325 17.509 31.9709C17.6631 31.9093 17.83 31.8784 18.0098 31.8784ZM24.9428 36.077C24.5166 36.077 24.1468 35.9897 23.8335 35.8151C23.5202 35.6354 23.2762 35.3914 23.1016 35.0832C22.9321 34.77 22.8474 34.413 22.8474 34.0124C22.8474 33.5604 22.9373 33.1753 23.117 32.8568C23.3019 32.5333 23.5407 32.2867 23.8335 32.1173C24.1262 31.9426 24.4369 31.8553 24.7656 31.8553C25.0173 31.8553 25.2561 31.9067 25.4821 32.0094C25.7081 32.107 25.9084 32.2457 26.083 32.4254C26.2628 32.6 26.404 32.808 26.5067 33.0494C26.6094 33.2857 26.6634 33.545 26.6685 33.8275C26.6634 33.9302 26.6223 34.015 26.5452 34.0817C26.4682 34.1485 26.3783 34.1819 26.2756 34.1819H23.2788L23.0939 33.5271H25.9906L25.8442 33.6657V33.4731C25.8339 33.2934 25.7748 33.1367 25.667 33.0032C25.5591 32.8645 25.4256 32.7592 25.2664 32.6873C25.1072 32.6103 24.9403 32.5718 24.7656 32.5718C24.6116 32.5718 24.4626 32.5975 24.3188 32.6488C24.1802 32.695 24.0543 32.7721 23.9413 32.8799C23.8335 32.9878 23.7462 33.1316 23.6794 33.3114C23.6178 33.486 23.587 33.7043 23.587 33.9662C23.587 34.2487 23.646 34.4952 23.7641 34.7058C23.8823 34.9163 24.0415 35.0807 24.2418 35.1988C24.4421 35.3118 24.6629 35.3683 24.9043 35.3683C25.0943 35.3683 25.251 35.3503 25.3742 35.3144C25.4975 35.2733 25.6002 35.2245 25.6824 35.168C25.7646 35.1115 25.8365 35.0576 25.8981 35.0062C25.9751 34.96 26.0522 34.9369 26.1292 34.9369C26.2217 34.9369 26.2987 34.9703 26.3603 35.037C26.422 35.0986 26.4528 35.1731 26.4528 35.2604C26.4528 35.3734 26.3963 35.4761 26.2833 35.5686C26.1446 35.7021 25.952 35.8202 25.7055 35.923C25.4641 36.0257 25.2099 36.077 24.9428 36.077Z" fill="black"/>
<path d="M15.5481 1L3.84485 10.8033C2.53949 11.8967 3.3127 14.0239 5.01552 14.0239V14.0239M15.5481 4.94664L7.67579 11.87C7.26002 12.2357 7.02173 12.7626 7.02173 13.3163V23.1486C7.02173 24.2122 7.88402 25.0745 8.9477 25.0745H15.5481" stroke="black" stroke-linecap="round" stroke-linejoin="round"/>
<path d="M16.0476 1L27.7508 10.8033C29.0562 11.8967 28.283 14.0239 26.5802 14.0239V14.0239M16.0476 4.94664L23.9199 11.87C24.3357 12.2357 24.574 12.7626 24.574 13.3163V23.1486C24.574 24.2122 23.7117 25.0745 22.648 25.0745H16.0476" stroke="black" stroke-linecap="round" stroke-linejoin="round"/>
</svg>
