<svg width="192" height="54" viewBox="0 0 192 54" fill="none" xmlns="http://www.w3.org/2000/svg">
<path d="M1.65233 29.6284C1.65257 29.6281 1.65264 29.6278 1.65251 29.6275C0.615377 27.2192 0.00130182 25.0276 2.06745e-06 23.5653C-2.49172e-07 23.5627 0.00211279 23.5606 0.00471905 23.5606C0.00732531 23.5606 0.0094381 23.5585 0.0094381 23.5559V23.5512C0.0094381 19.515 1.67082 15.8854 4.35248 13.2848L4.88503 12.7703L5.13768 12.5298C5.52693 12.1593 5.36884 11.5063 4.85321 11.3548L3.80183 11.046C3.26721 10.8884 2.74958 10.6879 2.25384 10.4483C1.60859 10.1366 1.96583 9.25798 2.68244 9.25798C4.44294 9.25798 6.13185 8.90556 7.66658 8.26445C8.39816 7.95766 9.0841 7.58716 9.74331 7.16316C9.91417 7.055 10.0764 6.93825 10.2472 6.81213C10.2485 6.81123 10.2499 6.81074 10.2515 6.81074H10.2542C10.2566 6.81074 10.2586 6.80881 10.2586 6.80642C10.2586 6.80403 10.2605 6.80209 10.2629 6.80209H10.2659C10.2673 6.80209 10.2686 6.80169 10.2698 6.80093C11.8679 5.77194 13.7725 5.18555 15.8122 5.18555C16.462 5.18555 17.0945 5.23983 17.708 5.35703L17.7842 5.37404C17.7874 5.37476 17.7907 5.37513 17.7941 5.37513C17.797 5.37513 17.8 5.37541 17.8028 5.37598C20.194 5.84633 22.2777 7.14616 23.7667 8.9504C23.8112 9.00356 23.8545 9.05677 23.8968 9.11014C24.1165 9.38703 24.0606 9.78241 23.8018 10.0231C23.6201 10.1922 23.4421 10.3664 23.2696 10.5489C22.3665 11.4881 21.5987 12.5626 21.0119 13.7363C20.5871 14.5764 20.2536 15.4701 20.0278 16.3999L19.7926 17.5287L19.7203 18.0251L19.6479 19.0634C19.6384 19.2168 19.6384 19.3797 19.6384 19.5331C19.6384 20.0027 19.6652 20.4629 19.7195 20.9238C19.7447 21.1629 19.7765 21.401 19.8149 21.6375C19.9053 22.1947 19.3639 22.6962 18.8149 22.565C17.8502 22.3345 16.8406 22.2147 15.8099 22.2147C15.566 22.2147 15.3403 22.2147 15.0964 22.2328C13.3187 22.3327 11.6323 22.7915 10.1155 23.5395C9.87447 23.6584 9.58516 23.6412 9.3751 23.4735C8.96695 23.1476 8.58537 22.7941 8.22588 22.4137L8.21645 22.4051L7.9191 22.1062L7.88684 22.0684L7.87452 22.0533C7.86648 22.0434 7.85822 22.0339 7.84974 22.0244C7.81785 21.9888 7.73537 21.8954 7.71142 21.8544C7.52165 21.5246 7.08978 21.383 6.84616 21.6754L6.05004 22.6308L6.0219 22.6657C6.01654 22.6723 6.0107 22.6786 6.00442 22.6843L5.89586 22.811L5.73303 23.0006L5.70549 23.0281L5.66931 23.0729L5.35308 23.5064C3.78216 25.646 2.85235 28.3009 2.85235 31.1541C2.85235 31.3976 2.50078 31.492 2.39555 31.2724C2.12879 30.7155 1.88168 30.1669 1.65216 29.6293C1.65203 29.629 1.6521 29.6286 1.65233 29.6284ZM21.9079 18.9824C21.9079 18.8524 22.0325 18.7677 22.1544 18.813C22.8284 19.0637 23.4253 19.4691 23.9029 19.9827C24.0973 20.1917 24.1113 20.5064 23.9517 20.7431C23.6704 21.1601 23.357 21.5554 23.0108 21.9292C22.7818 22.1856 22.3714 22.0865 22.2797 21.7552C22.133 21.2257 22.031 20.6781 21.9732 20.1128V20.1034C21.9362 19.7329 21.9079 19.3624 21.9079 18.9824ZM21.3301 39.6517C21.3299 39.652 21.3296 39.6523 21.3294 39.6526L21.1905 39.8748C19.9114 41.8948 18.6048 43.8135 17.4469 45.4811C16.2048 47.2511 16.5603 46.7504 15.7823 47.7974C15.7547 47.8414 15.1953 48.6065 14.7463 49.2195C14.4682 49.5992 13.9035 49.6012 13.626 49.2211C12.6887 47.9365 10.7628 45.2749 9.32954 43.1456C8.08827 41.3108 6.78364 39.2875 5.53145 37.226C5.49351 37.1636 5.46551 37.0956 5.44945 37.0243C5.27957 36.2702 5.1871 35.4903 5.1871 34.6853C5.1871 34.0567 5.24268 33.4556 5.34368 32.8732C5.34418 32.8704 5.34443 32.8675 5.34443 32.8646C5.34443 32.8612 5.34477 32.8578 5.34544 32.8545L5.36331 32.7667L5.37361 32.6874C5.37878 32.6476 5.37891 32.6073 5.37398 32.5675L5.35461 32.4108C5.35413 32.4069 5.35236 32.4033 5.34958 32.4006C5.34628 32.3972 5.34443 32.3928 5.34443 32.3881V32.3798C5.34443 32.3776 5.34424 32.3754 5.34386 32.3733C5.24196 31.7906 5.1871 31.1891 5.1871 30.5602C5.1871 29.0758 5.49634 27.6603 6.05604 26.3839C6.16558 26.1341 6.52002 26.137 6.64238 26.3807C8.35647 29.6429 10.7659 32.478 13.6671 34.712C15.8621 36.3852 18.3388 37.708 21.008 38.6033C21.4176 38.7407 21.6009 39.2286 21.3682 39.5926C21.3557 39.612 21.3433 39.6315 21.3308 39.6509C21.3306 39.6512 21.3304 39.6515 21.3301 39.6517ZM23.0573 36.7362C23.0572 36.7361 23.0571 36.7361 23.057 36.736C17.3416 35.2595 12.4955 31.5672 9.5079 26.6309C9.42541 26.4946 9.46935 26.3178 9.6049 26.2341L9.66807 26.1951C9.67303 26.192 9.67875 26.1904 9.68458 26.1904C9.69106 26.1904 9.69738 26.1884 9.70268 26.1846L9.85187 26.0795L9.90772 26.0425L9.96807 26.0079C9.97064 26.0064 9.97222 26.0037 9.97222 26.0007C9.97222 25.9978 9.97373 25.9952 9.97621 25.9937C11.4306 25.1148 13.1063 24.569 14.9021 24.4669C15.0964 24.4574 15.2915 24.448 15.4858 24.448C17.5325 24.448 19.4301 25.0402 21.0607 26.0487C21.0633 26.0503 21.0662 26.0511 21.0692 26.0511C21.0724 26.0511 21.0755 26.0521 21.0781 26.0538L21.2819 26.1869C21.2854 26.1892 21.2888 26.1919 21.2918 26.1949C21.295 26.1982 21.2986 26.2011 21.3025 26.2035C21.4491 26.296 21.5956 26.3955 21.731 26.5007C21.7815 26.54 21.8249 26.5876 21.8619 26.6398C22.2739 27.2209 22.7354 27.7685 23.2315 28.273C23.2327 28.2743 23.2334 28.276 23.2334 28.2777V28.2778C23.2334 28.2815 23.2363 28.2844 23.24 28.2844C23.2418 28.2844 23.2435 28.2852 23.2448 28.2865C23.3741 28.425 23.5217 28.5631 23.762 28.7666C23.93 28.9272 24.0916 29.0736 24.264 29.2181C24.3179 29.2633 24.3656 29.3156 24.4036 29.3747C24.8835 30.1213 25.2633 30.9515 25.5366 31.8224C25.5893 31.9904 25.5713 32.172 25.4912 32.3286C24.7529 33.7716 23.9265 35.2538 23.0584 36.7361C23.0582 36.7365 23.0576 36.7365 23.0573 36.7362ZM27.626 20.1081C27.5746 20.3297 27.5165 20.5479 27.4516 20.7627C27.3653 21.0482 27.001 21.0269 26.8755 20.7563L26.5884 20.2001C26.0228 19.1437 25.2173 18.2445 24.2442 17.568C23.7362 17.2269 23.1892 16.9439 22.6036 16.7326C22.2306 16.5981 21.9996 16.2031 22.1378 15.8315C22.6462 14.465 23.4357 13.2269 24.4291 12.1937C24.6455 11.9663 24.8715 11.7485 25.1088 11.5439C25.3922 11.2994 25.8187 11.3584 26.032 11.6659C27.2177 13.3752 27.9131 15.4362 27.9131 17.6703C27.9131 18.5136 27.8108 19.3301 27.626 20.1081Z" fill="black"/>
<path d="M19.2398 12.5377C19.3412 12.7918 19.6728 12.8815 19.827 12.6555C20.1902 12.1229 20.401 11.4747 20.401 10.7798C20.3915 8.92023 18.893 7.4209 17.042 7.4209C16.1122 7.4209 15.2721 7.79141 14.6672 8.40498C14.2701 8.7951 13.9752 9.28231 13.8175 9.83105C13.7414 10.0957 14.0255 10.2959 14.2876 10.2118C14.6754 10.0875 15.0899 10.0215 15.5159 10.0215C17.2023 10.0215 18.6484 11.0544 19.2398 12.5377ZM16.4115 8.50646C16.4114 8.50646 16.4113 8.50629 16.4114 8.50619C16.6686 8.24519 17.0249 8.08797 17.4204 8.08797C18.207 8.08797 18.8442 8.72515 18.8481 9.51572C18.8481 9.68283 18.8195 9.8435 18.7667 9.99248C18.6754 10.2502 18.3393 10.1717 18.1867 9.94481C17.8805 9.48942 17.3609 9.1932 16.7722 9.1932C16.6431 9.1932 16.5163 9.20748 16.3945 9.23484C16.2173 9.27464 16.0309 9.13935 16.0996 8.97119C16.1713 8.79535 16.2778 8.63791 16.4116 8.50674C16.4118 8.50664 16.4117 8.50646 16.4115 8.50646Z" fill="white"/>
<path d="M64.941 41.28C65.1703 41.28 65.371 41.366 65.543 41.538C65.715 41.71 65.801 41.9107 65.801 42.14C65.801 42.398 65.715 42.613 65.543 42.785C65.371 42.9283 65.1703 43 64.941 43H49.16C48.902 43 48.687 42.914 48.515 42.742C48.3717 42.57 48.3 42.3693 48.3 42.14V13.76C48.3 13.5307 48.386 13.33 48.558 13.158C48.73 12.986 48.945 12.9 49.203 12.9C49.461 12.9 49.676 12.986 49.848 13.158C50.02 13.33 50.106 13.5307 50.106 13.76V42.054L49.332 41.28H64.941ZM86.8596 33.5702C86.8596 35.4163 86.4604 37.0877 85.6621 38.5845C84.8639 40.0563 83.7662 41.2288 82.3692 42.1019C80.9972 42.9501 79.4255 43.3742 77.6543 43.3742C75.9081 43.3742 74.3364 42.9501 72.9394 42.1019C71.5424 41.2288 70.4323 40.0563 69.6091 38.5845C68.8108 37.0877 68.4116 35.4163 68.4116 33.5702C68.4116 31.6992 68.8108 30.0278 69.6091 28.556C70.4323 27.0592 71.5424 25.8867 72.9394 25.0385C74.3364 24.1654 75.9081 23.7288 77.6543 23.7288C79.4255 23.7288 80.9972 24.1654 82.3692 25.0385C83.7662 25.8867 84.8639 27.0592 85.6621 28.556C86.4604 30.0278 86.8596 31.6992 86.8596 33.5702ZM85.3628 33.5702C85.3628 31.9487 85.026 30.5143 84.3525 29.267C83.7038 27.9947 82.7933 26.9968 81.6208 26.2734C80.4733 25.525 79.1511 25.1508 77.6543 25.1508C76.1825 25.1508 74.8603 25.525 73.6878 26.2734C72.5153 26.9968 71.5923 27.9947 70.9188 29.267C70.2452 30.5143 69.9084 31.9487 69.9084 33.5702C69.9084 35.1668 70.2452 36.6012 70.9188 37.8735C71.5923 39.1208 72.5153 40.1187 73.6878 40.8671C74.8603 41.5905 76.1825 41.9522 77.6543 41.9522C79.1511 41.9522 80.4733 41.5905 81.6208 40.8671C82.7933 40.1187 83.7038 39.1208 84.3525 37.8735C85.026 36.6012 85.3628 35.1668 85.3628 33.5702ZM100.169 23.7288C101.292 23.7288 102.339 23.8536 103.312 24.103C104.31 24.3525 105.108 24.6893 105.707 25.1134C106.331 25.5125 106.643 25.9366 106.643 26.3856C106.643 26.5603 106.568 26.7349 106.418 26.9095C106.293 27.0592 106.131 27.134 105.932 27.134C105.657 27.134 105.433 27.0592 105.258 26.9095C105.108 26.7598 104.946 26.5852 104.772 26.3856C104.597 26.1611 104.323 25.9615 103.948 25.7869C103.599 25.6123 103.1 25.4626 102.452 25.3379C101.828 25.2131 101.055 25.1508 100.132 25.1508C98.6847 25.1508 97.3625 25.525 96.1651 26.2734C94.9677 27.0218 94.0072 28.0321 93.2838 29.3044C92.5853 30.5517 92.236 31.9612 92.236 33.5328C92.236 35.1294 92.5603 36.5638 93.2089 37.8361C93.8825 39.1083 94.8055 40.1187 95.978 40.8671C97.1754 41.5905 98.56 41.9522 100.132 41.9522C101.254 41.9522 102.102 41.8525 102.676 41.6529C103.275 41.4284 103.786 41.1914 104.21 40.9419C104.734 40.6426 105.096 40.3557 105.296 40.0813C105.495 39.8068 105.732 39.6696 106.006 39.6696C106.206 39.6696 106.356 39.732 106.456 39.8567C106.58 39.9815 106.643 40.1436 106.643 40.3432C106.643 40.6426 106.368 41.0417 105.819 41.5406C105.271 42.0146 104.497 42.4387 103.499 42.8129C102.526 43.1871 101.366 43.3742 100.019 43.3742C98.1982 43.3742 96.5892 42.9501 95.1922 42.1019C93.7952 41.2288 92.6975 40.0563 91.8993 38.5845C91.1259 37.0877 90.7392 35.4038 90.7392 33.5328C90.7392 31.7866 91.1259 30.1775 91.8993 28.7057C92.6975 27.2089 93.7952 26.0114 95.1922 25.1134C96.6141 24.1903 98.2731 23.7288 100.169 23.7288ZM121.584 16.286L111.17 42.4649C111.116 42.6295 111.02 42.7668 110.882 42.8765C110.745 42.9588 110.594 43 110.43 43C110.155 43 109.949 42.9314 109.812 42.7942C109.675 42.657 109.593 42.4923 109.565 42.3003C109.538 42.1905 109.551 42.0533 109.606 41.8886L120.679 14.6396C120.761 14.42 120.857 14.2828 120.967 14.228C121.104 14.1456 121.269 14.1045 121.461 14.1045C121.68 14.1045 121.859 14.1594 121.996 14.2691C122.133 14.3514 122.229 14.4749 122.284 14.6396L133.357 41.8886C133.384 41.971 133.398 42.0807 133.398 42.2179C133.398 42.4649 133.315 42.657 133.151 42.7942C132.986 42.9314 132.78 43 132.533 43C132.341 43 132.163 42.9588 131.998 42.8765C131.861 42.7668 131.765 42.6295 131.71 42.4649L120.967 15.9568L121.584 16.286ZM113.969 34.0679L114.546 32.4214H127.882L128.294 34.0679H113.969ZM160.247 43C159.923 43 159.673 42.8877 159.499 42.6632C159.324 42.4387 159.237 42.1643 159.237 41.84V40.9793C159.237 40.6301 159.324 40.3557 159.499 40.1561C159.673 39.9316 159.923 39.8193 160.247 39.8193H160.397C160.746 39.8193 160.996 39.9316 161.145 40.1561C161.32 40.3557 161.407 40.6301 161.407 40.9793V41.84C161.407 42.1643 161.32 42.4387 161.145 42.6632C160.996 42.8877 160.746 43 160.397 43H160.247ZM168.075 42.2516C168.075 42.4512 168.001 42.6258 167.851 42.7755C167.701 42.9252 167.527 43 167.327 43C167.103 43 166.915 42.9252 166.766 42.7755C166.641 42.6258 166.579 42.4512 166.579 42.2516V16.0578C166.579 15.8582 166.654 15.6836 166.803 15.5339C166.953 15.3842 167.127 15.3094 167.327 15.3094C167.552 15.3094 167.726 15.3842 167.851 15.5339C168.001 15.6836 168.075 15.8582 168.075 16.0578V42.2516ZM187.989 23.7288C188.214 23.7288 188.388 23.8037 188.513 23.9534C188.663 24.103 188.738 24.2777 188.738 24.4772V41.1664C188.738 43.0873 188.351 44.7463 187.578 46.1433C186.804 47.5403 185.756 48.613 184.434 49.3614C183.112 50.1098 181.603 50.4839 179.907 50.4839C178.759 50.4839 177.724 50.3467 176.801 50.0723C175.903 49.7979 175.167 49.4611 174.593 49.062C174.418 48.9373 174.281 48.7876 174.181 48.613C174.082 48.4383 174.082 48.2512 174.181 48.0517C174.281 47.8521 174.418 47.7149 174.593 47.64C174.793 47.5652 174.98 47.5902 175.154 47.7149C175.578 47.9644 176.214 48.2637 177.063 48.613C177.936 48.9622 178.909 49.1368 179.981 49.1368C181.428 49.1368 182.688 48.8001 183.761 48.1265C184.858 47.4529 185.707 46.5175 186.305 45.32C186.929 44.1226 187.241 42.7381 187.241 41.1664V38.3974L187.316 39.3329C186.966 40.0813 186.43 40.7673 185.707 41.391C185.008 41.9897 184.21 42.4761 183.312 42.8503C182.439 43.1996 181.528 43.3742 180.58 43.3742C179.033 43.3742 177.761 43.0748 176.763 42.4761C175.79 41.8525 175.067 41.0043 174.593 39.9316C174.144 38.8589 173.919 37.5991 173.919 36.1522V24.4772C173.919 24.2777 173.982 24.103 174.106 23.9534C174.256 23.8037 174.443 23.7288 174.668 23.7288C174.892 23.7288 175.067 23.8037 175.192 23.9534C175.341 24.103 175.416 24.2777 175.416 24.4772V36.1522C175.416 37.9234 175.803 39.3329 176.576 40.3806C177.374 41.4284 178.709 41.9522 180.58 41.9522C181.703 41.9522 182.763 41.6778 183.761 41.129C184.784 40.5552 185.619 39.8193 186.268 38.9212C186.916 38.0232 187.241 37.1002 187.241 36.1522V24.4772C187.241 24.2777 187.303 24.103 187.428 23.9534C187.578 23.8037 187.765 23.7288 187.989 23.7288Z" fill="black"/>
<path d="M144 14.999V41.999" stroke="black" stroke-width="1.4" stroke-linecap="round"/>
<path d="M133 14.999L155 14.999" stroke="black" stroke-width="1.4" stroke-linecap="round"/>
<path d="M132.5 42.499L156.5 42.499" stroke="black" stroke-width="1.4" stroke-linecap="round"/>
</svg>
