<svg width="25" height="27" viewBox="0 0 25 27" fill="none" xmlns="http://www.w3.org/2000/svg">
<path d="M14.5 7.5V2C14.5 1.44772 14.0523 1 13.5 1H2C1.44772 1 1 1.44772 1 2V25C1 25.5523 1.44772 26 2 26H13.5C14.0523 26 14.5 25.5523 14.5 25V19" stroke="#FF5E5E" stroke-width="2" stroke-linecap="round"/>
<path d="M6 12.5C5.44772 12.5 5 12.9477 5 13.5C5 14.0523 5.44772 14.5 6 14.5V12.5ZM24.7071 14.2071C25.0976 13.8166 25.0976 13.1834 24.7071 12.7929L18.3431 6.42893C17.9526 6.03841 17.3195 6.03841 16.9289 6.42893C16.5384 6.81946 16.5384 7.45262 16.9289 7.84315L22.5858 13.5L16.9289 19.1569C16.5384 19.5474 16.5384 20.1805 16.9289 20.5711C17.3195 20.9616 17.9526 20.9616 18.3431 20.5711L24.7071 14.2071ZM6 14.5H24V12.5H6V14.5Z" fill="#FF5E5E"/>
</svg>
