<svg width="18" height="28" viewBox="0 0 18 28" fill="none" xmlns="http://www.w3.org/2000/svg">
<path d="M1.06552 15.2771C1.06567 15.2769 1.06572 15.2767 1.06563 15.2765C0.396853 13.7714 0.000866145 12.4016 1.41918e-06 11.4877C-1.71006e-07 11.486 0.00136245 11.4847 0.00304312 11.4847C0.00472379 11.4847 0.00608624 11.4833 0.00608624 11.4816V11.4788C0.00608624 8.95607 1.07744 6.68755 2.80673 5.06212L3.15015 4.74058C3.46902 4.44638 3.34279 3.91657 2.92551 3.79777L2.45164 3.66286C2.11186 3.56578 1.78272 3.44263 1.46725 3.29578C1.05447 3.10363 1.27448 2.54532 1.72979 2.54532C2.86507 2.54532 3.95418 2.32506 4.94386 1.92435C5.41562 1.73261 5.85796 1.50104 6.28305 1.23603C6.39324 1.16843 6.49788 1.09546 6.60803 1.01663C6.60881 1.01607 6.60975 1.01577 6.61071 1.01577H6.61262C6.61411 1.01577 6.61532 1.01456 6.61532 1.01306C6.61532 1.01157 6.61653 1.01036 6.61802 1.01036H6.62005C6.62094 1.01036 6.62181 1.01011 6.62256 1.00964C7.6531 0.366505 8.88128 0 10.1967 0C10.6157 0 11.0235 0.0339249 11.4192 0.107182L11.4683 0.117807C11.4704 0.118261 11.4725 0.118491 11.4747 0.118491C11.4766 0.118491 11.4785 0.11867 11.4803 0.119025C13.0223 0.412997 14.366 1.22541 15.3262 2.35308C15.5192 2.57677 15.471 2.9088 15.2544 3.10987C15.1699 3.18839 15.0868 3.2689 15.0056 3.35213C14.4232 3.93917 13.9281 4.61078 13.5497 5.34434C13.2758 5.86943 13.0607 6.42796 12.9151 7.0091L12.7634 7.71463L12.7168 8.02487L12.6701 8.67385C12.664 8.76973 12.664 8.8715 12.664 8.96738C12.664 9.2609 12.6813 9.54852 12.7163 9.83663C12.7751 10.3771 12.2498 10.8722 11.7146 10.7767C11.2211 10.6888 10.7123 10.6434 10.1951 10.6434C10.0379 10.6434 9.89229 10.6434 9.73504 10.6548C8.63963 10.7144 7.59794 10.9789 6.65411 11.4102C6.41598 11.519 6.13472 11.5042 5.93109 11.3396C5.71066 11.1615 5.50241 10.9708 5.30453 10.7678L5.29844 10.7624L5.1067 10.5756L5.0859 10.552L5.08251 10.548C5.07429 10.5382 5.06581 10.5287 5.05717 10.5193C5.03411 10.4942 4.98713 10.4421 4.97278 10.4183C4.84916 10.21 4.57673 10.118 4.41884 10.3017L3.90142 10.9035L3.8833 10.9253C3.87983 10.9295 3.87605 10.9334 3.872 10.937L3.80199 11.0161L3.69699 11.1346L3.67924 11.1518L3.6559 11.1798L3.45198 11.4507C2.43896 12.7881 1.83937 14.4474 1.83937 16.2307C1.83937 16.3862 1.61571 16.448 1.54679 16.3086C1.374 15.9592 1.21399 15.615 1.06541 15.2777C1.06533 15.2775 1.06537 15.2772 1.06552 15.2771ZM14.1275 8.62321C14.1275 8.54156 14.2054 8.48826 14.2823 8.51583C14.6573 8.65038 14.9955 8.85695 15.2793 9.11683C15.4953 9.31464 15.5095 9.64233 15.3348 9.87747C15.1829 10.082 15.0176 10.2778 14.8387 10.465C14.689 10.6275 14.4262 10.5632 14.3656 10.3507C14.2719 10.0214 14.2067 9.68108 14.1696 9.32973V9.32383C14.1458 9.09226 14.1275 8.86069 14.1275 8.62321ZM13.7549 21.5418C13.7547 21.542 13.7546 21.5422 13.7545 21.5424L13.6649 21.6812C12.84 22.9438 11.9975 24.1429 11.2508 25.1853C10.4498 26.2915 10.679 25.9785 10.1774 26.6329C10.1634 26.6545 9.93827 26.9536 9.70209 27.2665C9.42381 27.6352 8.8713 27.6358 8.59411 27.2663C7.94477 26.4007 6.85096 24.9274 6.01623 23.7255C5.22337 22.5896 4.39043 21.3381 3.58996 20.0623C3.55027 19.9991 3.5208 19.9299 3.50437 19.857C3.40104 19.3989 3.34494 18.9257 3.34494 18.4377C3.34494 18.0449 3.38078 17.6691 3.44592 17.3052C3.44624 17.3034 3.4464 17.3016 3.4464 17.2998C3.4464 17.2976 3.44662 17.2955 3.44705 17.2935L3.45857 17.2386L3.46517 17.1893C3.46854 17.1642 3.46862 17.1388 3.46541 17.1137L3.45297 17.0162C3.45266 17.0137 3.45151 17.0115 3.44973 17.0097C3.4476 17.0077 3.4464 17.0048 3.4464 17.0019V16.9968C3.4464 16.9954 3.44628 16.994 3.44603 16.9927C3.38032 16.6285 3.34494 16.2525 3.34494 15.8595C3.34494 14.9317 3.54434 14.0471 3.90524 13.2494C3.97719 13.0903 4.20313 13.0923 4.28339 13.2473C5.38874 15.2862 6.94251 17.0581 8.81332 18.4544C10.2314 19.5021 11.8318 20.33 13.5566 20.8896C13.8137 20.973 13.9279 21.2798 13.7791 21.5054C13.7712 21.5174 13.7633 21.5294 13.7553 21.5413C13.7552 21.5415 13.7551 21.5416 13.7549 21.5418ZM14.8687 19.7196C14.8686 19.7195 14.8686 19.7195 14.8685 19.7194C11.1845 18.797 8.06059 16.4909 6.13379 13.4077C6.07959 13.321 6.10794 13.207 6.1957 13.1545L6.2345 13.1312C6.23773 13.1293 6.24142 13.1283 6.24518 13.1283C6.24937 13.1283 6.25346 13.127 6.25691 13.1247L6.35306 13.059L6.38908 13.0359L6.42806 13.0142C6.42967 13.0133 6.43067 13.0116 6.43067 13.0098C6.43067 13.008 6.43163 13.0063 6.43318 13.0054C7.37105 12.4561 8.45166 12.1149 9.60974 12.0511C9.73503 12.0452 9.86084 12.0393 9.98613 12.0393C11.306 12.0393 12.5296 12.4094 13.5812 13.0397C13.5828 13.0407 13.5847 13.0413 13.5867 13.0413C13.5887 13.0413 13.5907 13.0418 13.5924 13.0429L13.7238 13.1261C13.7261 13.1276 13.7282 13.1292 13.7302 13.1311C13.7323 13.1332 13.7346 13.135 13.7371 13.1365C13.8215 13.1881 13.9059 13.2432 13.9851 13.3013C14.0369 13.3392 14.0809 13.3864 14.119 13.438C14.3793 13.7905 14.6696 14.123 14.981 14.43C14.9818 14.4307 14.9822 14.4318 14.9822 14.4329C14.9822 14.4352 14.9841 14.4371 14.9864 14.4371H14.9865C14.9877 14.4371 14.9888 14.4376 14.9896 14.4384C15.073 14.525 15.1682 14.6113 15.3231 14.7385C15.4217 14.8297 15.5168 14.9137 15.6168 14.9961C15.6712 15.0409 15.72 15.0924 15.7586 15.1515C16.038 15.5793 16.2637 16.05 16.4325 16.5433C16.4911 16.7146 16.4716 16.9021 16.3867 17.0621C15.9238 17.9332 15.4091 18.8263 14.8694 19.7195C14.8693 19.7197 14.8689 19.7198 14.8687 19.7196ZM17.8148 9.32678C17.7817 9.46539 17.7442 9.60184 17.7023 9.73614C17.6454 9.9184 17.4133 9.90414 17.3309 9.73191L17.1458 9.3843C16.781 8.724 16.2616 8.16204 15.6341 7.73921C15.3807 7.57433 15.1124 7.43118 14.8291 7.3137C14.4589 7.16015 14.2228 6.75982 14.3829 6.39234C14.7099 5.64158 15.1788 4.95936 15.7533 4.38019C15.8408 4.29107 15.9307 4.20433 16.0234 4.12049C16.2949 3.87478 16.7127 3.93195 16.9157 4.23675C17.6016 5.26713 18 6.48704 18 7.80313C18 8.33018 17.9341 8.84053 17.8148 9.32678Z" fill="black"/>
<path d="M12.3158 4.39692C12.4403 4.63664 12.7685 4.72307 12.8999 4.48705C13.0638 4.19265 13.1564 3.85416 13.1564 3.49587C13.1503 2.33359 12.1839 1.39648 10.9903 1.39648C10.3907 1.39648 9.84896 1.62806 9.45887 2.01155C9.25817 2.20268 9.09796 2.4311 8.98907 2.68609C8.88155 2.93788 9.15958 3.14336 9.42696 3.08448C9.61371 3.04336 9.80803 3.02191 10.0062 3.02191C11.0146 3.02191 11.8898 3.57703 12.3158 4.39692ZM10.5837 2.07498C10.5836 2.07498 10.5836 2.07486 10.5837 2.0748C10.7495 1.91167 10.9792 1.81341 11.2343 1.81341C11.7416 1.81341 12.1525 2.21166 12.155 2.70577C12.155 2.73575 12.1535 2.7654 12.1505 2.79465C12.1232 3.06323 11.7831 2.99599 11.5878 2.8096C11.3893 2.62015 11.1167 2.50419 10.8163 2.50419C10.7293 2.50419 10.644 2.51393 10.5623 2.53256C10.4524 2.55759 10.3378 2.47314 10.381 2.36905C10.4273 2.25769 10.4966 2.15803 10.5838 2.07515C10.5839 2.07509 10.5838 2.07498 10.5837 2.07498Z" fill="white"/>
</svg>
