<svg width="137" height="50" viewBox="0 0 137 50" fill="none" xmlns="http://www.w3.org/2000/svg">
<g filter="url(#filter0_d_288_98)">
<rect x="6" y="6" width="125" height="38" rx="19" fill="white"/>
</g>
<path d="M50.4969 25.3706C50.4969 26.0672 50.3867 26.7065 50.1662 27.2885C49.9546 27.8617 49.6504 28.3643 49.2536 28.7964C48.8568 29.2196 48.385 29.5503 47.8383 29.7884C47.3004 30.0176 46.7096 30.1323 46.0659 30.1323C45.4222 30.1323 44.827 30.0176 44.2803 29.7884C43.7424 29.5503 43.275 29.2196 42.8782 28.7964C42.4814 28.3643 42.1728 27.8617 41.9523 27.2885C41.7407 26.7065 41.6349 26.0672 41.6349 25.3706C41.6349 24.674 41.7407 24.0391 41.9523 23.4659C42.1728 22.884 42.4814 22.3813 42.8782 21.9581C43.275 21.526 43.7424 21.1953 44.2803 20.9661C44.827 20.728 45.4222 20.6089 46.0659 20.6089C46.7096 20.6089 47.3004 20.728 47.8383 20.9661C48.385 21.1953 48.8568 21.526 49.2536 21.9581C49.6504 22.3813 49.9546 22.884 50.1662 23.4659C50.3867 24.0391 50.4969 24.674 50.4969 25.3706ZM49.6504 25.3706C49.6504 24.5858 49.4961 23.898 49.1874 23.3072C48.8876 22.7076 48.4688 22.2402 47.9309 21.9052C47.393 21.5701 46.7713 21.4025 46.0659 21.4025C45.3693 21.4025 44.7476 21.5701 44.2009 21.9052C43.663 22.2402 43.2397 22.7076 42.9311 23.3072C42.6313 23.898 42.4814 24.5858 42.4814 25.3706C42.4814 26.1554 42.6313 26.8476 42.9311 27.4472C43.2397 28.038 43.663 28.501 44.2009 28.836C44.7476 29.1711 45.3693 29.3387 46.0659 29.3387C46.7713 29.3387 47.393 29.1711 47.9309 28.836C48.4688 28.501 48.8876 28.038 49.1874 27.4472C49.4961 26.8476 49.6504 26.1554 49.6504 25.3706ZM52.013 23.0956C52.0836 23.0956 52.1541 23.1176 52.2246 23.1617C52.2952 23.2058 52.3481 23.2719 52.3834 23.3601L54.6981 28.8625L54.5261 28.9683L56.8937 23.3601C56.9643 23.1838 57.0921 23.1 57.2773 23.1088C57.3655 23.1088 57.4492 23.1397 57.5286 23.2014C57.608 23.2543 57.6477 23.3337 57.6477 23.4395C57.6477 23.4924 57.6388 23.5365 57.6212 23.5717C57.6124 23.5982 57.6036 23.6291 57.5947 23.6643L55.0023 29.7487C54.9317 29.9074 54.8127 29.9912 54.6452 30C54.5658 30.0088 54.4864 29.9912 54.4071 29.9471C54.3365 29.8942 54.2836 29.8281 54.2483 29.7487L51.6427 23.6643C51.6338 23.6467 51.625 23.6202 51.6162 23.585C51.6074 23.5497 51.603 23.5144 51.603 23.4792C51.603 23.3822 51.6382 23.294 51.7088 23.2146C51.7793 23.1353 51.8807 23.0956 52.013 23.0956ZM62.1635 30.1323C61.4845 30.1323 60.8849 29.9868 60.3646 29.6958C59.8444 29.4048 59.4388 28.9992 59.1478 28.4789C58.8568 27.9587 58.7113 27.3502 58.7113 26.6536C58.7113 25.9041 58.8568 25.2648 59.1478 24.7357C59.4476 24.2066 59.8311 23.801 60.2985 23.5188C60.7747 23.2279 61.2773 23.0824 61.8064 23.0824C62.1943 23.0824 62.5691 23.1529 62.9306 23.294C63.301 23.4263 63.6273 23.6291 63.9094 23.9024C64.2004 24.167 64.4297 24.4932 64.5972 24.8812C64.7736 25.2692 64.8706 25.7189 64.8882 26.2303C64.8794 26.3362 64.8353 26.4287 64.7559 26.5081C64.6766 26.5787 64.584 26.6139 64.4782 26.6139H59.1742L59.0155 25.8997H64.2269L64.0549 26.0584V25.7939C64.0197 25.3794 63.8874 25.0267 63.6581 24.7357C63.4289 24.4447 63.1511 24.2243 62.8248 24.0744C62.4986 23.9245 62.1591 23.8495 61.8064 23.8495C61.5418 23.8495 61.2685 23.9024 60.9863 24.0082C60.7129 24.114 60.4616 24.2816 60.2324 24.5109C60.0119 24.7313 59.8311 25.0179 59.6901 25.3706C59.549 25.7145 59.4784 26.1245 59.4784 26.6007C59.4784 27.121 59.5842 27.5927 59.7959 28.016C60.0075 28.4392 60.3117 28.7743 60.7085 29.0212C61.1142 29.2681 61.5947 29.3916 62.1503 29.3916C62.4589 29.3916 62.7366 29.3475 62.9836 29.2593C63.2305 29.1711 63.4465 29.0565 63.6317 28.9154C63.8168 28.7655 63.9712 28.6112 64.0946 28.4525C64.1916 28.3731 64.2886 28.3334 64.3856 28.3334C64.4738 28.3334 64.5487 28.3687 64.6105 28.4392C64.681 28.5098 64.7163 28.5891 64.7163 28.6773C64.7163 28.7831 64.6722 28.8757 64.584 28.9551C64.3195 29.2725 63.9756 29.5503 63.5523 29.7884C63.129 30.0176 62.6661 30.1323 62.1635 30.1323ZM66.9837 30C66.8603 30 66.7633 29.9603 66.6928 29.881C66.6222 29.8016 66.5869 29.709 66.5869 29.6032V23.6776C66.5869 23.5717 66.6222 23.4792 66.6928 23.3998C66.7721 23.3204 66.8691 23.2808 66.9837 23.2808C67.0984 23.2808 67.191 23.3204 67.2615 23.3998C67.3409 23.4792 67.3806 23.5717 67.3806 23.6776V25.6616L67.1821 25.7013C67.2086 25.3926 67.2836 25.0884 67.407 24.7886C67.5393 24.48 67.7156 24.1978 67.9361 23.9421C68.1565 23.6864 68.4167 23.4792 68.7165 23.3204C69.0251 23.1617 69.369 23.0824 69.7482 23.0824C69.9069 23.0824 70.0612 23.1176 70.2111 23.1882C70.361 23.2499 70.436 23.3557 70.436 23.5056C70.436 23.6379 70.4007 23.7393 70.3301 23.8098C70.2596 23.8804 70.1758 23.9156 70.0788 23.9156C69.9995 23.9156 69.9113 23.8936 69.8143 23.8495C69.7261 23.8054 69.6071 23.7834 69.4572 23.7834C69.2103 23.7834 68.9634 23.8583 68.7165 24.0082C68.4696 24.1493 68.2447 24.3433 68.0419 24.5902C67.8391 24.8371 67.6759 25.1149 67.5525 25.4235C67.4379 25.7233 67.3806 26.0275 67.3806 26.3362V29.6032C67.3806 29.709 67.3409 29.8016 67.2615 29.881C67.1821 29.9603 67.0896 30 66.9837 30ZM72.1762 23.0956C72.2468 23.0956 72.3173 23.1176 72.3878 23.1617C72.4584 23.2058 72.5113 23.2719 72.5466 23.3601L74.8613 28.8625L74.6893 28.9683L77.0569 23.3601C77.1275 23.1838 77.2553 23.1 77.4405 23.1088C77.5287 23.1088 77.6125 23.1397 77.6918 23.2014C77.7712 23.2543 77.8109 23.3337 77.8109 23.4395C77.8109 23.4924 77.802 23.5365 77.7844 23.5717C77.7756 23.5982 77.7668 23.6291 77.7579 23.6643L75.1655 29.7487C75.0949 29.9074 74.9759 29.9912 74.8084 30C74.729 30.0088 74.6496 29.9912 74.5703 29.9471C74.4997 29.8942 74.4468 29.8281 74.4116 29.7487L71.8059 23.6643C71.797 23.6467 71.7882 23.6202 71.7794 23.585C71.7706 23.5497 71.7662 23.5144 71.7662 23.4792C71.7662 23.3822 71.8015 23.294 71.872 23.2146C71.9425 23.1353 72.0439 23.0956 72.1762 23.0956ZM80.103 29.6032C80.103 29.709 80.0633 29.8016 79.984 29.881C79.9046 29.9603 79.812 30 79.7062 30C79.5916 30 79.4946 29.9603 79.4152 29.881C79.3447 29.8016 79.3094 29.709 79.3094 29.6032V23.5188C79.3094 23.413 79.3447 23.3204 79.4152 23.2411C79.4946 23.1617 79.5916 23.122 79.7062 23.122C79.8209 23.122 79.9134 23.1617 79.984 23.2411C80.0633 23.3204 80.103 23.413 80.103 23.5188V29.6032ZM79.7062 22.2358C79.521 22.2358 79.38 22.1962 79.283 22.1168C79.1948 22.0286 79.1507 21.9052 79.1507 21.7464V21.6142C79.1507 21.4555 79.1992 21.3364 79.2962 21.257C79.402 21.1689 79.5431 21.1248 79.7194 21.1248C79.887 21.1248 80.0148 21.1689 80.103 21.257C80.2 21.3364 80.2485 21.4555 80.2485 21.6142V21.7464C80.2485 21.9052 80.2 22.0286 80.103 22.1168C80.0148 22.1962 79.8826 22.2358 79.7062 22.2358ZM85.2201 30.1323C84.5411 30.1323 83.9415 29.9868 83.4212 29.6958C82.901 29.4048 82.4953 28.9992 82.2043 28.4789C81.9134 27.9587 81.7679 27.3502 81.7679 26.6536C81.7679 25.9041 81.9134 25.2648 82.2043 24.7357C82.5042 24.2066 82.8877 23.801 83.3551 23.5188C83.8312 23.2279 84.3339 23.0824 84.8629 23.0824C85.2509 23.0824 85.6257 23.1529 85.9872 23.294C86.3576 23.4263 86.6838 23.6291 86.966 23.9024C87.257 24.167 87.4863 24.4932 87.6538 24.8812C87.8302 25.2692 87.9272 25.7189 87.9448 26.2303C87.936 26.3362 87.8919 26.4287 87.8125 26.5081C87.7332 26.5787 87.6406 26.6139 87.5348 26.6139H82.2308L82.0721 25.8997H87.2835L87.1115 26.0584V25.7939C87.0762 25.3794 86.944 25.0267 86.7147 24.7357C86.4854 24.4447 86.2077 24.2243 85.8814 24.0744C85.5551 23.9245 85.2157 23.8495 84.8629 23.8495C84.5984 23.8495 84.325 23.9024 84.0429 24.0082C83.7695 24.114 83.5182 24.2816 83.2889 24.5109C83.0685 24.7313 82.8877 25.0179 82.7466 25.3706C82.6056 25.7145 82.535 26.1245 82.535 26.6007C82.535 27.121 82.6408 27.5927 82.8525 28.016C83.0641 28.4392 83.3683 28.7743 83.7651 29.0212C84.1707 29.2681 84.6513 29.3916 85.2068 29.3916C85.5155 29.3916 85.7932 29.3475 86.0401 29.2593C86.287 29.1711 86.5031 29.0565 86.6882 28.9154C86.8734 28.7655 87.0277 28.6112 87.1512 28.4525C87.2482 28.3731 87.3452 28.3334 87.4422 28.3334C87.5304 28.3334 87.6053 28.3687 87.667 28.4392C87.7376 28.5098 87.7728 28.5891 87.7728 28.6773C87.7728 28.7831 87.7288 28.8757 87.6406 28.9551C87.376 29.2725 87.0321 29.5503 86.6089 29.7884C86.1856 30.0176 85.7227 30.1323 85.2201 30.1323ZM97.6722 23.0956C97.7692 23.0956 97.8574 23.1309 97.9368 23.2014C98.0249 23.2719 98.069 23.3689 98.069 23.4924C98.069 23.5188 98.0646 23.5497 98.0558 23.585C98.047 23.6202 98.0382 23.6467 98.0293 23.6643L95.9924 29.7487C95.9571 29.8281 95.8998 29.8942 95.8205 29.9471C95.7499 29.9912 95.675 30.0088 95.5956 30C95.4369 29.9912 95.3178 29.9074 95.2385 29.7487L93.3735 25.3574L93.6116 25.4103L91.9582 29.7487C91.8877 29.9074 91.7686 29.9912 91.6011 30C91.5217 30.0088 91.4424 29.9912 91.363 29.9471C91.2836 29.8942 91.2307 29.8281 91.2043 29.7487L89.1144 23.6643C89.088 23.6026 89.0748 23.5453 89.0748 23.4924C89.0748 23.3778 89.11 23.2852 89.1806 23.2146C89.2599 23.1353 89.3613 23.0956 89.4848 23.0956C89.5642 23.0956 89.6347 23.1176 89.6964 23.1617C89.767 23.2058 89.8155 23.2719 89.8419 23.3601L91.7201 28.9948L91.4688 28.9815L93.1751 24.6828C93.2456 24.5153 93.3691 24.4315 93.5454 24.4315C93.6336 24.4315 93.7086 24.4535 93.7703 24.4976C93.832 24.5417 93.8805 24.6034 93.9158 24.6828L95.7279 28.9948L95.4369 29.008L97.3019 23.3601C97.3548 23.1838 97.4782 23.0956 97.6722 23.0956Z" fill="black"/>
<rect x="19.5" y="18.5" width="13.3158" height="15" rx="3.5" stroke="black"/>
<path d="M21.5254 22.2109H30.7885" stroke="black" stroke-linecap="round"/>
<path d="M21.5254 27.2627H30.7885" stroke="black" stroke-linecap="round"/>
<path d="M21.5254 24.7373H30.7885" stroke="black" stroke-linecap="round"/>
<path d="M21.5254 29.7891H30.7885" stroke="black" stroke-linecap="round"/>
<path d="M108.814 21L113.801 25.571C114.201 25.9378 114.215 26.5642 113.831 26.948L108.814 31.9645" stroke="black" stroke-width="0.953435" stroke-linecap="round"/>
<path d="M105 21L109.987 25.571C110.387 25.9378 110.4 26.5642 110.016 26.948L105 31.9645" stroke="black" stroke-width="0.953435" stroke-linecap="round"/>
<path d="M112.627 21L117.614 25.571C118.014 25.9378 118.027 26.5642 117.643 26.948L112.627 31.9645" stroke="black" stroke-width="0.953435" stroke-linecap="round"/>
<defs>
<filter id="filter0_d_288_98" x="0.0999999" y="0.0999999" width="136.8" height="49.8" filterUnits="userSpaceOnUse" color-interpolation-filters="sRGB">
<feFlood flood-opacity="0" result="BackgroundImageFix"/>
<feColorMatrix in="SourceAlpha" type="matrix" values="0 0 0 0 0 0 0 0 0 0 0 0 0 0 0 0 0 0 127 0" result="hardAlpha"/>
<feOffset/>
<feGaussianBlur stdDeviation="2.95"/>
<feComposite in2="hardAlpha" operator="out"/>
<feColorMatrix type="matrix" values="0 0 0 0 0 0 0 0 0 0 0 0 0 0 0 0 0 0 0.25 0"/>
<feBlend mode="normal" in2="BackgroundImageFix" result="effect1_dropShadow_288_98"/>
<feBlend mode="normal" in="SourceGraphic" in2="effect1_dropShadow_288_98" result="shape"/>
</filter>
</defs>
</svg>
