<svg width="27" height="19" viewBox="0 0 27 19" fill="none" xmlns="http://www.w3.org/2000/svg">
<path d="M12.5828 17.501H24C24.8333 17.501 26.3 16.801 25.5 14.001C24.9364 12.0285 23.5126 11.429 22.3124 11.3635C21.649 11.3273 20.9919 10.8341 20.8311 10.1894C20.4615 8.70712 19.4132 7.00098 17 7.00098C14.269 7.00098 13.0433 9.18601 12.639 10.7589C12.5277 11.1922 12.1905 11.5437 11.7751 11.71C10.7561 12.1181 9.5 13.099 9.5 15.001C9.5 17.3374 11.3955 17.652 12.4185 17.5133C12.4731 17.5059 12.5277 17.501 12.5828 17.501Z" stroke="black"/>
<path d="M8.88708 12.7481C8.89597 13.0307 8.67343 13.27 8.39165 13.2467C7.70752 13.1903 7.04296 12.9778 6.45012 12.6228C5.71034 12.1799 5.11339 11.5338 4.7303 10.7613C4.3472 9.98885 4.1941 9.12259 4.28921 8.26561C4.38431 7.40863 4.72362 6.59702 5.26676 5.92735C5.8099 5.25768 6.534 4.75815 7.35289 4.4882C8.17178 4.21825 9.05099 4.18925 9.8859 4.40464C10.7208 4.62004 11.4762 5.07076 12.0623 5.70318C12.532 6.20999 12.8771 6.81638 13.0735 7.47412C13.1545 7.74504 12.9662 8.01218 12.6879 8.06182C12.4095 8.11146 12.1472 7.92417 12.0573 7.65612C11.9011 7.19083 11.6476 6.76196 11.3113 6.39916C10.8586 5.91063 10.2751 5.56246 9.63012 5.39607C8.98518 5.22969 8.30602 5.25209 7.67345 5.46062C7.04088 5.66915 6.48154 6.05502 6.06199 6.57232C5.64243 7.08962 5.38032 7.71656 5.30686 8.37855C5.23339 9.04054 5.35166 9.7097 5.64758 10.3064C5.94351 10.9031 6.40464 11.4022 6.97609 11.7444C7.40048 11.9985 7.87246 12.158 8.35995 12.2148C8.6408 12.2475 8.8782 12.4654 8.88708 12.7481Z" fill="black"/>
<path d="M8 14L7 17" stroke="black" stroke-linecap="round"/>
<path d="M4 11L1 13" stroke="black" stroke-linecap="round"/>
<path d="M4 7L1 6" stroke="black" stroke-linecap="round"/>
<path d="M7 4L6 1" stroke="black" stroke-linecap="round"/>
<path d="M12.4746 1.1582L11.4746 4.1582" stroke="black" stroke-linecap="round"/>
</svg>
