<svg width="29" height="38" viewBox="0 0 29 38" fill="none" xmlns="http://www.w3.org/2000/svg">
<path d="M3.61426 30.6073C3.88646 30.6073 4.13812 30.6818 4.36924 30.8307C4.60035 30.9745 4.78525 31.1723 4.92392 31.4239C5.06259 31.6756 5.13192 31.958 5.13192 32.2713C5.13192 32.5846 5.06259 32.8697 4.92392 33.1265C4.78525 33.3781 4.60035 33.581 4.36924 33.7351C4.13812 33.884 3.88646 33.9585 3.61426 33.9585H2.12742L2.18905 33.8352V35.6071C2.18905 35.7201 2.1531 35.8151 2.0812 35.8921C2.01443 35.964 1.92455 36 1.81156 36C1.70371 36 1.61383 35.964 1.54193 35.8921C1.47516 35.8151 1.44178 35.7201 1.44178 35.6071V31.0002C1.44178 30.8872 1.4803 30.7948 1.55734 30.7229C1.63437 30.6458 1.72682 30.6073 1.83467 30.6073H3.61426ZM3.61426 33.2189C3.7478 33.2189 3.86849 33.1753 3.97634 33.0879C4.08933 33.0006 4.17921 32.8851 4.24598 32.7413C4.31788 32.5975 4.35383 32.4408 4.35383 32.2713C4.35383 32.1019 4.31788 31.9478 4.24598 31.8091C4.17921 31.6704 4.08933 31.56 3.97634 31.4778C3.86849 31.3905 3.7478 31.3469 3.61426 31.3469H2.11201L2.18905 31.2313V33.3191L2.11972 33.2189H3.61426ZM6.81587 35.6071C6.81587 35.7201 6.77735 35.8151 6.70031 35.8921C6.62841 35.964 6.53853 36 6.43068 36C6.32283 36 6.23038 35.964 6.15334 35.8921C6.08144 35.8151 6.04549 35.7201 6.04549 35.6071V30.6921C6.04549 30.5791 6.08401 30.4866 6.16105 30.4147C6.23808 30.3377 6.33053 30.2992 6.43838 30.2992C6.55137 30.2992 6.64125 30.3377 6.70802 30.4147C6.77992 30.4866 6.81587 30.5791 6.81587 30.6921V35.6071ZM11.2828 31.8861C11.3958 31.8861 11.4883 31.9247 11.5602 32.0017C11.6321 32.0736 11.668 32.1661 11.668 32.279V35.6071C11.668 35.7201 11.6321 35.8151 11.5602 35.8921C11.4883 35.964 11.3958 36 11.2828 36C11.175 36 11.0825 35.964 11.0055 35.8921C10.9336 35.8151 10.8976 35.7201 10.8976 35.6071V35.0524L11.0594 35.0755C11.0594 35.168 11.0209 35.2707 10.9439 35.3837C10.872 35.4967 10.7718 35.6071 10.6434 35.715C10.515 35.8177 10.3635 35.905 10.1889 35.9769C10.0143 36.0437 9.82681 36.077 9.62651 36.077C9.27214 36.077 8.95371 35.9872 8.67124 35.8074C8.38876 35.6225 8.16535 35.3709 8.001 35.0524C7.83665 34.734 7.75448 34.3719 7.75448 33.9662C7.75448 33.5502 7.83665 33.1855 8.001 32.8722C8.16535 32.5538 8.38619 32.3047 8.66353 32.125C8.94601 31.9452 9.2593 31.8553 9.6034 31.8553C9.82424 31.8553 10.0271 31.8913 10.212 31.9632C10.402 32.0351 10.5664 32.1275 10.7051 32.2405C10.8437 32.3535 10.949 32.4742 11.0209 32.6026C11.0979 32.7259 11.1365 32.844 11.1365 32.957L10.8976 32.9801V32.279C10.8976 32.1712 10.9336 32.0787 11.0055 32.0017C11.0825 31.9247 11.175 31.8861 11.2828 31.8861ZM9.71125 35.3683C9.95264 35.3683 10.1658 35.3067 10.3507 35.1834C10.5356 35.0601 10.6794 34.8932 10.7821 34.6826C10.8848 34.4669 10.9362 34.2281 10.9362 33.9662C10.9362 33.6991 10.8848 33.4603 10.7821 33.2497C10.6794 33.0392 10.5356 32.8722 10.3507 32.749C10.1658 32.6257 9.95264 32.5641 9.71125 32.5641C9.475 32.5641 9.26443 32.6257 9.07954 32.749C8.89978 32.8722 8.75598 33.0392 8.64812 33.2497C8.54541 33.4603 8.49405 33.6991 8.49405 33.9662C8.49405 34.2281 8.54541 34.4669 8.64812 34.6826C8.75598 34.8932 8.89978 35.0601 9.07954 35.1834C9.26443 35.3067 9.475 35.3683 9.71125 35.3683ZM14.835 31.8553C15.1997 31.8553 15.4822 31.9324 15.6825 32.0864C15.8828 32.2354 16.0214 32.4383 16.0985 32.695C16.1806 32.9467 16.2217 33.2292 16.2217 33.5425V35.6071C16.2217 35.7201 16.1832 35.8151 16.1062 35.8921C16.0343 35.964 15.9444 36 15.8365 36C15.7235 36 15.6311 35.964 15.5592 35.8921C15.4873 35.8151 15.4513 35.7201 15.4513 35.6071V33.5502C15.4513 33.3653 15.4257 33.2009 15.3743 33.0571C15.3229 32.9082 15.2331 32.7901 15.1047 32.7028C14.9814 32.6103 14.8068 32.5641 14.5808 32.5641C14.3702 32.5641 14.1853 32.6103 14.0261 32.7028C13.8669 32.7901 13.7411 32.9082 13.6486 33.0571C13.5613 33.2009 13.5177 33.3653 13.5177 33.5502V35.6071C13.5177 35.7201 13.4792 35.8151 13.4021 35.8921C13.3302 35.964 13.2403 36 13.1325 36C13.0195 36 12.927 35.964 12.8551 35.8921C12.7832 35.8151 12.7473 35.7201 12.7473 35.6071V32.3407C12.7473 32.2277 12.7832 32.1352 12.8551 32.0633C12.927 31.9863 13.0195 31.9478 13.1325 31.9478C13.2403 31.9478 13.3302 31.9863 13.4021 32.0633C13.4792 32.1352 13.5177 32.2277 13.5177 32.3407V32.7721L13.379 32.8491C13.415 32.7361 13.4766 32.6231 13.5639 32.5102C13.6563 32.392 13.7668 32.2842 13.8952 32.1866C14.0236 32.0839 14.1674 32.0043 14.3266 31.9478C14.4858 31.8861 14.6553 31.8553 14.835 31.8553ZM19.3791 31.8553C19.7437 31.8553 20.0262 31.9324 20.2265 32.0864C20.4268 32.2354 20.5655 32.4383 20.6425 32.695C20.7247 32.9467 20.7658 33.2292 20.7658 33.5425V35.6071C20.7658 35.7201 20.7273 35.8151 20.6502 35.8921C20.5783 35.964 20.4885 36 20.3806 36C20.2676 36 20.1752 35.964 20.1033 35.8921C20.0314 35.8151 19.9954 35.7201 19.9954 35.6071V33.5502C19.9954 33.3653 19.9697 33.2009 19.9184 33.0571C19.867 32.9082 19.7771 32.7901 19.6487 32.7028C19.5255 32.6103 19.3509 32.5641 19.1249 32.5641C18.9143 32.5641 18.7294 32.6103 18.5702 32.7028C18.411 32.7901 18.2852 32.9082 18.1927 33.0571C18.1054 33.2009 18.0617 33.3653 18.0617 33.5502V35.6071C18.0617 35.7201 18.0232 35.8151 17.9462 35.8921C17.8743 35.964 17.7844 36 17.6766 36C17.5636 36 17.4711 35.964 17.3992 35.8921C17.3273 35.8151 17.2914 35.7201 17.2914 35.6071V32.3407C17.2914 32.2277 17.3273 32.1352 17.3992 32.0633C17.4711 31.9863 17.5636 31.9478 17.6766 31.9478C17.7844 31.9478 17.8743 31.9863 17.9462 32.0633C18.0232 32.1352 18.0617 32.2277 18.0617 32.3407V32.7721L17.9231 32.8491C17.959 32.7361 18.0207 32.6231 18.108 32.5102C18.2004 32.392 18.3108 32.2842 18.4392 32.1866C18.5676 32.0839 18.7114 32.0043 18.8706 31.9478C19.0299 31.8861 19.1993 31.8553 19.3791 31.8553ZM23.7229 36.077C23.2966 36.077 22.9268 35.9897 22.6135 35.8151C22.3002 35.6354 22.0563 35.3914 21.8816 35.0832C21.7122 34.77 21.6274 34.413 21.6274 34.0124C21.6274 33.5604 21.7173 33.1753 21.8971 32.8568C22.0819 32.5333 22.3208 32.2867 22.6135 32.1173C22.9063 31.9426 23.217 31.8553 23.5457 31.8553C23.7973 31.8553 24.0362 31.9067 24.2621 32.0094C24.4881 32.107 24.6884 32.2457 24.863 32.4254C25.0428 32.6 25.184 32.808 25.2867 33.0494C25.3895 33.2857 25.4434 33.545 25.4485 33.8275C25.4434 33.9302 25.4023 34.015 25.3253 34.0817C25.2482 34.1485 25.1583 34.1819 25.0556 34.1819H22.0588L21.8739 33.5271H24.7706L24.6242 33.6657V33.4731C24.6139 33.2934 24.5549 33.1367 24.447 33.0032C24.3392 32.8645 24.2056 32.7592 24.0464 32.6873C23.8872 32.6103 23.7203 32.5718 23.5457 32.5718C23.3916 32.5718 23.2427 32.5975 23.0989 32.6488C22.9602 32.695 22.8344 32.7721 22.7214 32.8799C22.6135 32.9878 22.5262 33.1316 22.4594 33.3114C22.3978 33.486 22.367 33.7043 22.367 33.9662C22.367 34.2487 22.4261 34.4952 22.5442 34.7058C22.6623 34.9163 22.8215 35.0807 23.0218 35.1988C23.2221 35.3118 23.443 35.3683 23.6843 35.3683C23.8744 35.3683 24.031 35.3503 24.1543 35.3144C24.2775 35.2733 24.3803 35.2245 24.4624 35.168C24.5446 35.1115 24.6165 35.0576 24.6781 35.0062C24.7552 34.96 24.8322 34.9369 24.9093 34.9369C25.0017 34.9369 25.0787 34.9703 25.1404 35.037C25.202 35.0986 25.2328 35.1731 25.2328 35.2604C25.2328 35.3734 25.1763 35.4761 25.0633 35.5686C24.9247 35.7021 24.7321 35.8202 24.4855 35.923C24.2442 36.0257 23.9899 36.077 23.7229 36.077ZM26.7045 36C26.5915 36 26.4991 35.964 26.4272 35.8921C26.3553 35.8151 26.3193 35.7201 26.3193 35.6071V32.3407C26.3193 32.2277 26.3553 32.1352 26.4272 32.0633C26.4991 31.9863 26.5915 31.9478 26.7045 31.9478C26.8123 31.9478 26.9022 31.9863 26.9741 32.0633C27.0512 32.1352 27.0897 32.2277 27.0897 32.3407V33.2035L27.0126 32.8722C27.0537 32.7284 27.1154 32.5949 27.1975 32.4716C27.2849 32.3484 27.3876 32.2405 27.5057 32.1481C27.6238 32.0556 27.7548 31.9837 27.8986 31.9324C28.0475 31.881 28.2016 31.8553 28.3608 31.8553C28.4944 31.8553 28.6099 31.8913 28.7075 31.9632C28.8051 32.0351 28.8539 32.125 28.8539 32.2328C28.8539 32.3715 28.8179 32.4742 28.746 32.541C28.6741 32.6026 28.5945 32.6334 28.5072 32.6334C28.4302 32.6334 28.3557 32.618 28.2838 32.5872C28.2119 32.5512 28.1271 32.5333 28.0296 32.5333C27.9217 32.5333 27.8113 32.5615 27.6983 32.618C27.5853 32.6745 27.4826 32.7592 27.3901 32.8722C27.2977 32.9801 27.2232 33.1085 27.1667 33.2574C27.1154 33.4064 27.0897 33.5733 27.0897 33.7582V35.6071C27.0897 35.7201 27.0512 35.8151 26.9741 35.8921C26.9022 35.964 26.8123 36 26.7045 36Z" fill="black"/>
<path d="M26.0698 10.6281V9.68578C26.0698 7.35101 26.0698 6.18483 25.3646 5.45912C24.6593 4.73462 23.5256 4.73462 21.2558 4.73462H18.7538C17.6502 4.73462 17.6406 4.73222 16.6477 4.23518L12.6388 2.22896C10.9648 1.39133 10.1272 0.972515 9.23538 1.0014C8.34359 1.03028 7.53605 1.50325 5.91495 2.4492L4.43827 3.3109C3.24802 4.00531 2.6535 4.35312 2.32735 4.93079C2 5.50847 2 6.21131 2 7.61819V17.5073C2 19.3546 2 20.2789 2.41159 20.7928C2.68599 21.1358 3.0699 21.3656 3.49473 21.4427C4.13258 21.557 4.91485 21.1009 6.47698 20.1886C7.53846 19.5688 8.55902 18.925 9.8287 19.0995C10.8926 19.2463 11.8807 19.9179 12.8314 20.3932M9.22094 1.0002V19.0525M17.6454 4.61066V10.0264" stroke="black" stroke-linecap="round" stroke-linejoin="round"/>
<path d="M20.6539 18.4509H20.6647M21.6263 24.6898C21.3622 24.9354 21.0145 25.0714 20.6539 25.0701C20.2904 25.0701 19.9426 24.9341 19.6814 24.6885C17.2913 22.438 14.09 19.9227 15.6509 16.2725C16.4958 14.2988 18.5237 13.0352 20.6539 13.0352C22.784 13.0352 24.8131 14.2988 25.6568 16.2725C27.2165 19.9191 24.0224 22.4476 21.6263 24.6898Z" stroke="black" stroke-linecap="round" stroke-linejoin="round"/>
</svg>
