<svg width="18" height="17" viewBox="0 0 18 17" fill="none" xmlns="http://www.w3.org/2000/svg">
<path d="M4.08276 11.5H15.5C16.3333 11.5 17.8 10.8 17 8C16.4364 6.02748 15.0126 5.428 13.8124 5.36249C13.149 5.32628 12.4919 4.83308 12.3311 4.18844C11.9615 2.70614 10.9132 1 8.5 1C5.76902 1 4.54329 3.18503 4.13905 4.75793C4.02768 5.19126 3.69046 5.54269 3.27513 5.70903C2.25611 6.11715 1 7.098 1 9C1 11.3364 2.89545 11.651 3.91849 11.5123C3.97307 11.5049 4.02768 11.5 4.08276 11.5Z" stroke="black" stroke-linecap="round"/>
<path d="M3.5 13L2 15.5" stroke="black" stroke-linecap="round"/>
<path d="M7.5 12L6 14.5" stroke="black" stroke-linecap="round"/>
<path d="M10.5 14L9 16.5" stroke="black" stroke-linecap="round"/>
<path d="M14.5 12L13 14.5" stroke="black" stroke-linecap="round"/>
</svg>
