<svg width="27" height="24" viewBox="0 0 27 24" fill="none" xmlns="http://www.w3.org/2000/svg">
<path d="M11.0172 22.4164C10.2539 23.1354 9.20678 23.77 8.25899 23.3212C7.41574 22.922 6.62456 22.4307 5.89842 21.8604C5.12263 21.2511 5.15916 20.1215 5.38827 19.1619C5.45491 18.8829 5.49019 18.5916 5.49019 18.2921C5.49019 16.2312 4.89248 14.5786 2.8316 14.5786V14.5786C2.01184 14.5786 1.25304 13.9685 1.18286 13.1517C1.15231 12.7962 1.13672 12.4363 1.13672 12.0728C1.13672 11.1654 1.23389 10.2806 1.41841 9.42837C1.55971 8.77576 2.16387 8.3409 2.8316 8.3409V8.3409C4.89248 8.3409 5.49019 6.67059 5.49019 4.60972C5.49019 4.51791 5.48688 4.42688 5.48036 4.33674C5.419 3.4881 5.52567 2.55188 6.211 2.0476C6.99691 1.46931 7.85331 0.981226 8.76492 0.598603C9.60858 0.244502 10.521 0.720722 11.2329 1.29547C11.8733 1.81246 12.6881 2.12203 13.5752 2.12203C14.4623 2.12203 15.2771 1.81246 15.9175 1.29547C16.6294 0.720722 17.5419 0.244502 18.3855 0.598603C19.2971 0.981226 20.1535 1.46931 20.9394 2.0476C21.6248 2.55188 21.7314 3.4881 21.6701 4.33674C21.6636 4.42688 21.6602 4.51791 21.6602 4.60972C21.6602 6.67059 22.0827 8.3409 24.1436 8.3409V8.3409C24.9055 8.3409 25.5682 8.86498 25.7092 9.61365C25.8579 10.403 26.0137 11.3927 26.0137 12.0728C26.0137 12.5918 25.9819 13.1035 25.9202 13.6058C25.8447 14.2203 25.434 14.7535 24.8417 14.9337C24.4253 15.0605 24.2235 15.0605 24.1436 15.0605C22.0827 15.0605 21.6602 16.2312 21.6602 18.2921C21.6602 18.5916 21.6955 18.8829 21.7622 19.162C21.9913 20.1215 22.0278 21.2511 21.252 21.8604C20.5259 22.4307 19.7347 22.922 18.8915 23.3212C17.9437 23.77 16.8966 23.1354 16.1332 22.4164C15.4653 21.7873 14.5653 21.4017 13.5752 21.4017C12.5852 21.4017 11.6852 21.7873 11.0172 22.4164Z" stroke="black" stroke-width="0.962981" stroke-linejoin="round"/>
<path d="M13.5761 16.4277C15.9805 16.4277 17.9296 14.4785 17.9296 12.0742C17.9296 9.66982 15.9805 7.7207 13.5761 7.7207C11.1718 7.7207 9.22266 9.66982 9.22266 12.0742C9.22266 14.4785 11.1718 16.4277 13.5761 16.4277Z" stroke="black" stroke-width="0.962981" stroke-linejoin="round"/>
</svg>
