<svg width="30" height="39" viewBox="0 0 30 39" fill="none" xmlns="http://www.w3.org/2000/svg">
<path d="M12.427 23.4887C11.666 24.2102 10.6191 24.844 9.67089 24.3962C8.81433 23.9918 8.01104 23.493 7.2744 22.9133C6.49917 22.3033 6.53515 21.1741 6.76721 20.2153C6.83603 19.9309 6.8725 19.634 6.8725 19.3285C6.8725 17.254 6.27083 15.5904 4.19633 15.5904V15.5904C3.37114 15.5904 2.60732 14.9763 2.53668 14.1541C2.50593 13.7962 2.49023 13.434 2.49023 13.0681C2.49023 12.1547 2.58805 11.264 2.77379 10.4062C2.91602 9.74925 3.52418 9.31151 4.19633 9.31151V9.31151C6.27083 9.31151 6.8725 7.63016 6.8725 5.55566C6.8725 5.46003 6.86892 5.36524 6.8619 5.27141C6.79842 4.42293 6.90549 3.48701 7.59043 2.98223C8.38638 2.39562 9.25429 1.90099 10.1785 1.514C11.0224 1.16061 11.9348 1.63625 12.6451 2.21295C13.291 2.7373 14.1143 3.05152 15.011 3.05152C15.9077 3.05152 16.731 2.7373 17.3768 2.21295C18.0872 1.63625 18.9995 1.16061 19.8435 1.514C20.7677 1.90099 21.6356 2.39562 22.4315 2.98223C23.1165 3.48701 23.2235 4.42293 23.1601 5.27141C23.153 5.36524 23.1495 5.46003 23.1495 5.55566C23.1495 7.63016 23.5748 9.31151 25.6493 9.31151V9.31151C26.4161 9.31151 27.0833 9.83906 27.2252 10.5927C27.3749 11.3872 27.5317 12.3835 27.5317 13.0681C27.5317 13.5928 27.4995 14.11 27.4368 14.6177C27.3609 15.2321 26.9503 15.765 26.3582 15.946C25.9348 16.0755 25.7301 16.0755 25.6493 16.0755C23.5748 16.0755 23.1495 17.254 23.1495 19.3285C23.1495 19.634 23.1859 19.931 23.2548 20.2153C23.4868 21.1741 23.5228 22.3033 22.7476 22.9133C22.0109 23.493 21.2076 23.9918 20.3511 24.3962C19.4028 24.844 18.356 24.2102 17.595 23.4887C16.9217 22.8503 16.0121 22.4587 15.011 22.4587C14.0099 22.4587 13.1003 22.8503 12.427 23.4887Z" stroke="black" stroke-linejoin="round"/>
<path d="M15.0112 17.452C17.4314 17.452 19.3934 15.49 19.3934 13.0698C19.3934 10.6495 17.4314 8.6875 15.0112 8.6875C12.5909 8.6875 10.6289 10.6495 10.6289 13.0698C10.6289 15.49 12.5909 17.452 15.0112 17.452Z" stroke="black" stroke-linejoin="round"/>
<path d="M2.56335 36.2362C2.19357 36.2362 1.86487 36.1849 1.57726 36.0821C1.28965 35.9794 1.01488 35.8099 0.752951 35.5737C0.696456 35.5326 0.652801 35.4838 0.621985 35.4273C0.596306 35.3657 0.583466 35.3041 0.583466 35.2424C0.583466 35.1448 0.619417 35.0575 0.69132 34.9805C0.763223 34.9035 0.853101 34.8649 0.960955 34.8649C1.04313 34.8649 1.12017 34.8932 1.19207 34.9497C1.38723 35.1294 1.5901 35.2655 1.80067 35.358C2.01638 35.4504 2.26804 35.4966 2.55565 35.4966C2.76109 35.4966 2.94855 35.4633 3.11803 35.3965C3.29265 35.3297 3.43132 35.2399 3.53404 35.1269C3.63676 35.0139 3.68812 34.8829 3.68812 34.734C3.68812 34.5491 3.63419 34.3976 3.52634 34.2794C3.42362 34.1562 3.27211 34.056 3.07181 33.979C2.87664 33.8968 2.64039 33.8275 2.36305 33.771C2.10626 33.7248 1.87514 33.6606 1.66971 33.5784C1.46941 33.4962 1.29736 33.3935 1.15355 33.2702C1.00975 33.1418 0.899324 32.9903 0.822285 32.8157C0.745247 32.6411 0.706728 32.4382 0.706728 32.2071C0.706728 31.8938 0.788902 31.6242 0.953251 31.3982C1.1176 31.1722 1.34101 30.9976 1.62349 30.8743C1.90596 30.7511 2.22439 30.6894 2.57876 30.6894C2.90232 30.6894 3.20534 30.7408 3.48782 30.8435C3.77029 30.9411 3.99884 31.0746 4.17346 31.2441C4.29672 31.352 4.35835 31.4675 4.35835 31.5908C4.35835 31.6832 4.31983 31.7706 4.24279 31.8527C4.17089 31.9298 4.08615 31.9683 3.98857 31.9683C3.91666 31.9683 3.85503 31.9477 3.80367 31.9067C3.7215 31.8193 3.61108 31.7423 3.47241 31.6755C3.33374 31.6036 3.1848 31.5446 3.02559 31.4984C2.87151 31.4521 2.72257 31.429 2.57876 31.429C2.34765 31.429 2.14992 31.4624 1.98557 31.5292C1.82122 31.5908 1.69539 31.6781 1.60808 31.7911C1.52077 31.899 1.47711 32.0274 1.47711 32.1763C1.47711 32.3509 1.5259 32.4947 1.62349 32.6077C1.7262 32.7207 1.86744 32.8131 2.0472 32.885C2.22695 32.9518 2.43239 33.0134 2.6635 33.0699C2.94598 33.1316 3.19764 33.2009 3.41848 33.2779C3.64446 33.355 3.83449 33.4551 3.98857 33.5784C4.14264 33.6965 4.26077 33.8455 4.34294 34.0252C4.42512 34.205 4.4662 34.4284 4.4662 34.6954C4.4662 35.0036 4.37889 35.2732 4.20427 35.5044C4.02965 35.7355 3.79854 35.9152 3.51093 36.0436C3.22845 36.172 2.9126 36.2362 2.56335 36.2362ZM7.21618 36.2362C6.7899 36.2362 6.42011 36.1489 6.10682 35.9743C5.79353 35.7945 5.54958 35.5506 5.37496 35.2424C5.20547 34.9291 5.12073 34.5722 5.12073 34.1716C5.12073 33.7196 5.21061 33.3344 5.39036 33.016C5.57526 32.6924 5.81408 32.4459 6.10682 32.2764C6.39957 32.1018 6.71029 32.0145 7.03899 32.0145C7.29065 32.0145 7.52947 32.0659 7.75545 32.1686C7.98143 32.2662 8.18173 32.4048 8.35635 32.5846C8.5361 32.7592 8.67734 32.9672 8.78006 33.2086C8.88278 33.4449 8.9367 33.7042 8.94184 33.9867C8.9367 34.0894 8.89562 34.1742 8.81858 34.2409C8.74154 34.3077 8.65166 34.3411 8.54894 34.3411H5.55215L5.36725 33.6862H8.2639L8.11753 33.8249V33.6323C8.10725 33.4526 8.04819 33.2959 7.94034 33.1624C7.83248 33.0237 7.69895 32.9184 7.53974 32.8465C7.38053 32.7695 7.21361 32.731 7.03899 32.731C6.88491 32.731 6.73597 32.7566 6.59217 32.808C6.4535 32.8542 6.32767 32.9313 6.21468 33.0391C6.10682 33.147 6.01951 33.2908 5.95275 33.4705C5.89112 33.6452 5.8603 33.8634 5.8603 34.1254C5.8603 34.4078 5.91936 34.6544 6.03749 34.8649C6.15561 35.0755 6.31483 35.2399 6.51513 35.358C6.71543 35.471 6.93627 35.5275 7.17766 35.5275C7.36769 35.5275 7.52433 35.5095 7.64759 35.4735C7.77085 35.4325 7.87357 35.3837 7.95575 35.3272C8.03792 35.2707 8.10982 35.2167 8.17145 35.1654C8.24849 35.1192 8.32553 35.096 8.40257 35.096C8.49501 35.096 8.57205 35.1294 8.63368 35.1962C8.69532 35.2578 8.72613 35.3323 8.72613 35.4196C8.72613 35.5326 8.66964 35.6353 8.55665 35.7278C8.41798 35.8613 8.22538 35.9794 7.97886 36.0821C7.73747 36.1849 7.48324 36.2362 7.21618 36.2362ZM9.75869 32.1532H11.5691C11.6718 32.1532 11.7566 32.1891 11.8233 32.261C11.8952 32.3278 11.9312 32.4125 11.9312 32.5153C11.9312 32.6128 11.8952 32.695 11.8233 32.7618C11.7566 32.8286 11.6718 32.8619 11.5691 32.8619H9.75869C9.65597 32.8619 9.56866 32.8286 9.49676 32.7618C9.42999 32.6899 9.39661 32.6051 9.39661 32.5076C9.39661 32.4048 9.42999 32.3201 9.49676 32.2533C9.56866 32.1866 9.65597 32.1532 9.75869 32.1532ZM10.5676 31.1517C10.6806 31.1517 10.773 31.1902 10.8449 31.2672C10.9168 31.3391 10.9528 31.4316 10.9528 31.5446V35.1192C10.9528 35.2116 10.9682 35.2861 10.999 35.3426C11.0298 35.3991 11.0709 35.4376 11.1223 35.4581C11.1788 35.4787 11.2353 35.4889 11.2918 35.4889C11.3482 35.4889 11.397 35.4787 11.4381 35.4581C11.4843 35.4376 11.5383 35.4273 11.5999 35.4273C11.6615 35.4273 11.718 35.4556 11.7694 35.5121C11.8207 35.5686 11.8464 35.6456 11.8464 35.7432C11.8464 35.8664 11.7797 35.9666 11.6461 36.0436C11.5126 36.1207 11.3688 36.1592 11.2147 36.1592C11.1274 36.1592 11.0247 36.1515 10.9066 36.1361C10.7884 36.1207 10.6729 36.0821 10.5599 36.0205C10.452 35.9589 10.3622 35.8613 10.2903 35.7278C10.2183 35.5891 10.1824 35.3965 10.1824 35.15V31.5446C10.1824 31.4316 10.2183 31.3391 10.2903 31.2672C10.3673 31.1902 10.4597 31.1517 10.5676 31.1517ZM12.7304 32.1532H14.5408C14.6435 32.1532 14.7282 32.1891 14.795 32.261C14.8669 32.3278 14.9029 32.4125 14.9029 32.5153C14.9029 32.6128 14.8669 32.695 14.795 32.7618C14.7282 32.8286 14.6435 32.8619 14.5408 32.8619H12.7304C12.6277 32.8619 12.5404 32.8286 12.4685 32.7618C12.4017 32.6899 12.3683 32.6051 12.3683 32.5076C12.3683 32.4048 12.4017 32.3201 12.4685 32.2533C12.5404 32.1866 12.6277 32.1532 12.7304 32.1532ZM13.5393 31.1517C13.6523 31.1517 13.7447 31.1902 13.8166 31.2672C13.8885 31.3391 13.9245 31.4316 13.9245 31.5446V35.1192C13.9245 35.2116 13.9399 35.2861 13.9707 35.3426C14.0015 35.3991 14.0426 35.4376 14.094 35.4581C14.1505 35.4787 14.207 35.4889 14.2635 35.4889C14.3199 35.4889 14.3687 35.4787 14.4098 35.4581C14.456 35.4376 14.51 35.4273 14.5716 35.4273C14.6332 35.4273 14.6897 35.4556 14.7411 35.5121C14.7924 35.5686 14.8181 35.6456 14.8181 35.7432C14.8181 35.8664 14.7514 35.9666 14.6178 36.0436C14.4843 36.1207 14.3405 36.1592 14.1864 36.1592C14.0991 36.1592 13.9964 36.1515 13.8783 36.1361C13.7601 36.1207 13.6446 36.0821 13.5316 36.0205C13.4237 35.9589 13.3339 35.8613 13.262 35.7278C13.19 35.5891 13.1541 35.3965 13.1541 35.15V31.5446C13.1541 31.4316 13.19 31.3391 13.262 31.2672C13.339 31.1902 13.4314 31.1517 13.5393 31.1517ZM16.4802 35.7663C16.4802 35.8793 16.4442 35.9743 16.3723 36.0513C16.3004 36.1232 16.208 36.1592 16.095 36.1592C15.9871 36.1592 15.8947 36.1232 15.8176 36.0513C15.7457 35.9743 15.7098 35.8793 15.7098 35.7663V32.469C15.7098 32.356 15.7457 32.2636 15.8176 32.1917C15.8947 32.1147 15.9871 32.0761 16.095 32.0761C16.208 32.0761 16.3004 32.1147 16.3723 32.1917C16.4442 32.2636 16.4802 32.356 16.4802 32.469V35.7663ZM16.0873 31.5677C15.9383 31.5677 15.8305 31.542 15.7637 31.4906C15.6969 31.4342 15.6636 31.3417 15.6636 31.2133V31.09C15.6636 30.9617 15.6995 30.8718 15.7714 30.8204C15.8433 30.7691 15.9512 30.7434 16.095 30.7434C16.2491 30.7434 16.3595 30.7716 16.4262 30.8281C16.493 30.8795 16.5264 30.9668 16.5264 31.09V31.2133C16.5264 31.3468 16.4904 31.4393 16.4185 31.4906C16.3518 31.542 16.2414 31.5677 16.0873 31.5677ZM19.6042 32.0145C19.9689 32.0145 20.2513 32.0915 20.4516 32.2456C20.6519 32.3946 20.7906 32.5974 20.8676 32.8542C20.9498 33.1059 20.9909 33.3884 20.9909 33.7017V35.7663C20.9909 35.8793 20.9524 35.9743 20.8753 36.0513C20.8034 36.1232 20.7136 36.1592 20.6057 36.1592C20.4927 36.1592 20.4003 36.1232 20.3284 36.0513C20.2565 35.9743 20.2205 35.8793 20.2205 35.7663V33.7094C20.2205 33.5245 20.1948 33.3601 20.1435 33.2163C20.0921 33.0674 20.0022 32.9492 19.8738 32.8619C19.7506 32.7695 19.576 32.7233 19.35 32.7233C19.1394 32.7233 18.9545 32.7695 18.7953 32.8619C18.6361 32.9492 18.5103 33.0674 18.4178 33.2163C18.3305 33.3601 18.2868 33.5245 18.2868 33.7094V35.7663C18.2868 35.8793 18.2483 35.9743 18.1713 36.0513C18.0994 36.1232 18.0095 36.1592 17.9017 36.1592C17.7887 36.1592 17.6962 36.1232 17.6243 36.0513C17.5524 35.9743 17.5165 35.8793 17.5165 35.7663V32.4999C17.5165 32.3869 17.5524 32.2944 17.6243 32.2225C17.6962 32.1455 17.7887 32.107 17.9017 32.107C18.0095 32.107 18.0994 32.1455 18.1713 32.2225C18.2483 32.2944 18.2868 32.3869 18.2868 32.4999V32.9313L18.1482 33.0083C18.1841 32.8953 18.2458 32.7823 18.3331 32.6693C18.4255 32.5512 18.5359 32.4434 18.6643 32.3458C18.7927 32.2431 18.9365 32.1635 19.0957 32.107C19.255 32.0453 19.4244 32.0145 19.6042 32.0145ZM23.7477 32.0145C23.9685 32.0145 24.1714 32.0505 24.3563 32.1224C24.5412 32.1943 24.7004 32.2867 24.8339 32.3997C24.9726 32.5076 25.0804 32.6205 25.1575 32.7387C25.2345 32.8568 25.273 32.9595 25.273 33.0468L25.0958 33.0545V32.4382C25.0958 32.3304 25.1318 32.2379 25.2037 32.1609C25.2756 32.0838 25.368 32.0453 25.481 32.0453C25.594 32.0453 25.6865 32.0838 25.7584 32.1609C25.8303 32.2328 25.8662 32.3252 25.8662 32.4382V35.8356C25.8662 36.2722 25.7738 36.6265 25.5889 36.8987C25.404 37.1761 25.1575 37.379 24.8493 37.5074C24.5463 37.6358 24.2125 37.6999 23.8478 37.6999C23.7194 37.6999 23.5679 37.682 23.3933 37.646C23.2187 37.6152 23.0569 37.5767 22.9079 37.5305C22.7641 37.4842 22.664 37.438 22.6075 37.3918C22.4894 37.3302 22.4098 37.2583 22.3687 37.1761C22.3327 37.0939 22.3327 37.0117 22.3687 36.9296C22.42 36.8166 22.4894 36.7472 22.5767 36.7216C22.664 36.6959 22.7641 36.7036 22.8771 36.7447C22.9285 36.7601 23.0081 36.7883 23.116 36.8294C23.2238 36.8705 23.3445 36.9065 23.478 36.9373C23.6116 36.9732 23.7374 36.9912 23.8555 36.9912C24.2664 36.9912 24.5745 36.8962 24.78 36.7062C24.9906 36.5161 25.0958 36.2568 25.0958 35.9281V35.2347L25.1806 35.2886C25.1652 35.3965 25.1164 35.5069 25.0342 35.6199C24.9572 35.7278 24.8545 35.8279 24.7261 35.9204C24.5977 36.0128 24.4487 36.0898 24.2792 36.1515C24.1149 36.208 23.9454 36.2362 23.7708 36.2362C23.4061 36.2362 23.08 36.1463 22.7924 35.9666C22.5048 35.7817 22.2762 35.5326 22.1067 35.2193C21.9373 34.9009 21.8525 34.5362 21.8525 34.1254C21.8525 33.7145 21.9373 33.3524 22.1067 33.0391C22.2762 32.7207 22.5022 32.4716 22.7847 32.2918C23.0723 32.107 23.3933 32.0145 23.7477 32.0145ZM23.8632 32.7233C23.6116 32.7233 23.3907 32.7849 23.2007 32.9082C23.0107 33.0314 22.8617 33.1983 22.7539 33.4089C22.646 33.6195 22.5921 33.8583 22.5921 34.1254C22.5921 34.3924 22.646 34.6313 22.7539 34.8418C22.8617 35.0524 23.0107 35.2193 23.2007 35.3426C23.3907 35.4658 23.6116 35.5275 23.8632 35.5275C24.1149 35.5275 24.3357 35.4684 24.5258 35.3503C24.7158 35.227 24.8647 35.0601 24.9726 34.8495C25.0804 34.6338 25.1344 34.3924 25.1344 34.1254C25.1344 33.8583 25.0804 33.6195 24.9726 33.4089C24.8647 33.1932 24.7158 33.0263 24.5258 32.9082C24.3357 32.7849 24.1149 32.7233 23.8632 32.7233ZM26.6216 35.5275C26.5753 35.4556 26.5548 35.3734 26.5599 35.2809C26.5651 35.1834 26.619 35.1012 26.7217 35.0344C26.7936 34.9882 26.8681 34.9702 26.9451 34.9805C27.0273 34.9856 27.1043 35.0241 27.1762 35.096C27.32 35.2553 27.4793 35.3811 27.6539 35.4735C27.8336 35.566 28.0493 35.6122 28.301 35.6122C28.4037 35.6071 28.509 35.5917 28.6169 35.566C28.7247 35.5352 28.8172 35.4838 28.8942 35.4119C28.9712 35.3349 29.0098 35.2244 29.0098 35.0806C29.0098 34.9522 28.9687 34.8495 28.8865 34.7725C28.8043 34.6954 28.6965 34.6338 28.5629 34.5876C28.4294 34.5362 28.2856 34.49 28.1315 34.4489C27.9672 34.4027 27.8003 34.3513 27.6308 34.2948C27.4664 34.2384 27.3175 34.1665 27.1839 34.0791C27.0504 33.9867 26.94 33.8686 26.8527 33.7248C26.7705 33.581 26.7294 33.4038 26.7294 33.1932C26.7294 32.9518 26.7962 32.7438 26.9297 32.5692C27.0684 32.3946 27.2456 32.2585 27.4613 32.1609C27.6821 32.0633 27.9209 32.0145 28.1777 32.0145C28.3267 32.0145 28.4833 32.0351 28.6477 32.0761C28.812 32.1121 28.9712 32.1712 29.1253 32.2533C29.2794 32.3355 29.4129 32.4434 29.5259 32.5769C29.5773 32.6437 29.6055 32.7233 29.6107 32.8157C29.6209 32.9082 29.5798 32.9903 29.4874 33.0622C29.4258 33.1136 29.3513 33.1367 29.264 33.1316C29.1767 33.1264 29.1048 33.0982 29.0483 33.0468C28.9507 32.9236 28.8249 32.8286 28.6708 32.7618C28.5167 32.6899 28.3421 32.6539 28.1469 32.6539C28.0493 32.6539 27.9466 32.6693 27.8388 32.7002C27.7361 32.7258 27.6487 32.7746 27.5768 32.8465C27.5049 32.9184 27.469 33.0237 27.469 33.1624C27.469 33.2908 27.5101 33.3935 27.5922 33.4705C27.6796 33.5476 27.7925 33.6118 27.9312 33.6631C28.0699 33.7145 28.2214 33.7607 28.3857 33.8018C28.545 33.8429 28.7016 33.8917 28.8557 33.9482C29.0149 34.0047 29.1561 34.0791 29.2794 34.1716C29.4078 34.2589 29.5105 34.3745 29.5875 34.5183C29.6697 34.6569 29.7108 34.8341 29.7108 35.0498C29.7108 35.3015 29.6363 35.5172 29.4874 35.6969C29.3436 35.8716 29.1587 36.0051 28.9327 36.0975C28.7119 36.19 28.4782 36.2362 28.2317 36.2362C27.9389 36.2362 27.6462 36.1849 27.3534 36.0821C27.0658 35.9743 26.8219 35.7894 26.6216 35.5275Z" fill="black"/>
</svg>
