<svg width="25" height="25" viewBox="0 0 25 25" fill="none" xmlns="http://www.w3.org/2000/svg">
<path d="M16.4449 9.53957C17.7435 11.6586 17.0784 14.4291 14.9593 15.7277C12.8403 17.0263 10.0698 16.3612 8.7712 14.2421C7.47263 12.1231 8.13774 9.35257 10.2568 8.05399C12.3758 6.75541 15.1463 7.42053 16.4449 9.53957ZM9.64421 13.7071C10.6473 15.344 12.7875 15.8578 14.4244 14.8547C16.0612 13.8516 16.575 11.7114 15.5719 10.0746C14.5688 8.43767 12.4287 7.92389 10.7918 8.927C9.15488 9.93011 8.6411 12.0703 9.64421 13.7071Z" fill="black"/>
<path d="M17.2539 8.89746L19.9079 7.17805" stroke="black" stroke-linecap="round"/>
<path d="M17.7246 13.1143L21.3168 13.4246" stroke="black" stroke-linecap="round"/>
<path d="M15.6168 16.5512L17.7273 19.5169" stroke="black" stroke-linecap="round"/>
<path d="M11.4006 17.022L10.7784 21.0042" stroke="black" stroke-linecap="round"/>
<path d="M12.9766 6.24121L13.9939 2.78216" stroke="black" stroke-linecap="round"/>
<path d="M9.15625 7.43066L7.30931 4.86379" stroke="black" stroke-linecap="round"/>
<path d="M7.49506 10.6991L3.27402 9.57621" stroke="black" stroke-linecap="round"/>
<path d="M4.29492 17.1045L8.27589 14.5254" stroke="black" stroke-linecap="round"/>
</svg>
